<svg xmlns="http://www.w3.org/2000/svg" width="75.557" height="72.409" viewBox="0 0 75.557 72.409">
  <g id="api_icon" transform="translate(-480 -1009)">
    <g id="Globe_4" data-name="Globe 4" transform="translate(480 1009)">
      <g id="Group_2315" data-name="Group 2315">
        <g id="Group_2312" data-name="Group 2312" transform="translate(37.779)">
          <g id="Group_2306" data-name="Group 2306">
            <path id="Path_1462" data-name="Path 1462" d="M493.574,1081.409a1.574,1.574,0,1,1,0-3.148,33.056,33.056,0,0,0,0-66.113,1.574,1.574,0,1,1,0-3.148,36.2,36.2,0,0,1,0,72.409Z" transform="translate(-492 -1009)" fill="#090039"/>
          </g>
          <g id="Group_2307" data-name="Group 2307">
            <path id="Path_1463" data-name="Path 1463" d="M493.574,1081.409a1.574,1.574,0,1,1,0-3.148c9.385,0,17.315-15.14,17.315-33.056s-7.93-33.056-17.315-33.056a1.574,1.574,0,1,1,0-3.148c11.475,0,20.464,15.9,20.464,36.2S505.049,1081.409,493.574,1081.409Z" transform="translate(-492 -1009)" fill="#090039"/>
          </g>
          <g id="Group_2308" data-name="Group 2308">
            <path id="Path_1464" data-name="Path 1464" d="M493.574,1081.409a1.575,1.575,0,0,1-1.574-1.574v-69.261a1.574,1.574,0,1,1,3.148,0v69.261A1.575,1.575,0,0,1,493.574,1081.409Z" transform="translate(-492 -1009)" fill="#090039"/>
          </g>
          <g id="Group_2309" data-name="Group 2309" transform="translate(0 34.63)">
            <path id="Path_1465" data-name="Path 1465" d="M528.2,1023.148h-34.63a1.574,1.574,0,0,1,0-3.148H528.2a1.574,1.574,0,0,1,0,3.148Z" transform="translate(-492 -1020)" fill="#090039"/>
          </g>
          <g id="Group_2310" data-name="Group 2310" transform="translate(0 15.741)">
            <path id="Path_1466" data-name="Path 1466" d="M521.908,1017.148H493.574a1.574,1.574,0,1,1,0-3.148h28.334a1.574,1.574,0,1,1,0,3.148Z" transform="translate(-492 -1014)" fill="#090039"/>
          </g>
          <g id="Group_2311" data-name="Group 2311" transform="translate(0 53.52)">
            <path id="Path_1467" data-name="Path 1467" d="M521.908,1029.148H493.574a1.574,1.574,0,1,1,0-3.148h28.334a1.574,1.574,0,1,1,0,3.148Z" transform="translate(-492 -1026)" fill="#090039"/>
          </g>
        </g>
        <g id="Group_2313" data-name="Group 2313" transform="translate(25.186 25.186)">
          <path id="Path_1468" data-name="Path 1468" d="M499.019,1039.038a11.019,11.019,0,0,1,0-22.038,1.574,1.574,0,1,1,0,3.148,7.871,7.871,0,0,0,0,15.741,1.574,1.574,0,1,1,0,3.148Z" transform="translate(-488 -1017)" fill="#090039"/>
        </g>
        <g id="Group_2314" data-name="Group 2314" transform="translate(0 2.391)">
          <path id="Path_1469" data-name="Path 1469" d="M504.509,1077.388a6.094,6.094,0,0,1-2.355-.479,36.235,36.235,0,0,1-7.807-4.508,5.964,5.964,0,0,1-2.38-4.659,5.867,5.867,0,0,1,2.147-4.669,2.81,2.81,0,0,0,.39-3.856,26.911,26.911,0,0,1-2.689-4.678,2.8,2.8,0,0,0-3.532-1.586,5.874,5.874,0,0,1-5.141-.46,5.967,5.967,0,0,1-2.849-4.379,35.35,35.35,0,0,1,0-9.08,5.967,5.967,0,0,1,2.849-4.379,5.871,5.871,0,0,1,5.11-.469,2.813,2.813,0,0,0,3.564-1.577,26.768,26.768,0,0,1,2.689-4.675,2.81,2.81,0,0,0-.39-3.856,5.868,5.868,0,0,1-2.147-4.672,5.962,5.962,0,0,1,2.38-4.659,36.288,36.288,0,0,1,7.8-4.508,6.012,6.012,0,0,1,5.248.267,5.838,5.838,0,0,1,2.963,4.187,2.818,2.818,0,0,0,3.164,2.263,26.02,26.02,0,0,1,2.679-.142,1.574,1.574,0,0,1,0,3.148,23.222,23.222,0,0,0-2.352.123,5.91,5.91,0,0,1-6.6-4.876,2.673,2.673,0,0,0-1.376-1.946,2.856,2.856,0,0,0-2.509-.123,32.87,32.87,0,0,0-7.121,4.115,2.824,2.824,0,0,0-1.136,2.213,2.724,2.724,0,0,0,1,2.176,5.93,5.93,0,0,1,.944,8.125,23.677,23.677,0,0,0-2.371,4.124,5.917,5.917,0,0,1-7.509,3.252,2.768,2.768,0,0,0-2.415.2,2.851,2.851,0,0,0-1.351,2.087,32.112,32.112,0,0,0,0,8.274,2.852,2.852,0,0,0,1.351,2.087,2.713,2.713,0,0,0,2.38.217,5.924,5.924,0,0,1,7.543,3.24,23.686,23.686,0,0,0,2.371,4.124,5.922,5.922,0,0,1-.944,8.122,2.725,2.725,0,0,0-1,2.179,2.834,2.834,0,0,0,1.136,2.213,32.829,32.829,0,0,0,7.124,4.115,2.863,2.863,0,0,0,2.506-.123,2.674,2.674,0,0,0,1.376-1.946,5.9,5.9,0,0,1,6.6-4.876,23.222,23.222,0,0,0,2.352.123,1.574,1.574,0,1,1,0,3.148,25.951,25.951,0,0,1-2.679-.142,2.845,2.845,0,0,0-3.164,2.263,5.838,5.838,0,0,1-2.963,4.188A5.964,5.964,0,0,1,504.509,1077.388Z" transform="translate(-480 -1009.76)" fill="#090039"/>
        </g>
      </g>
    </g>
  </g>
</svg>
