<svg xmlns="http://www.w3.org/2000/svg" width="51.42" height="88.149" viewBox="0 0 51.42 88.149">
  <g id="app_icon" transform="translate(-2064.071 -749)">
    <path id="Path_1472" data-name="Path 1472" d="M2102.636,749h-25.71a12.871,12.871,0,0,0-12.855,12.855v62.439a12.871,12.871,0,0,0,12.855,12.855h25.71a12.87,12.87,0,0,0,12.855-12.855V761.855A12.87,12.87,0,0,0,2102.636,749Zm-34.892,18.364h44.075v47.747h-44.075Zm9.182-14.691h25.71a9.192,9.192,0,0,1,9.182,9.182v1.836h-44.075v-1.836A9.192,9.192,0,0,1,2076.926,752.673Zm25.71,80.8h-25.71a9.192,9.192,0,0,1-9.182-9.182v-5.509h44.075v5.509A9.192,9.192,0,0,1,2102.636,833.476Z" fill="#090039"/>
    <circle id="Ellipse_37" data-name="Ellipse 37" cx="3.673" cy="3.673" r="3.673" transform="translate(2086.108 822.458)" fill="#090039"/>
    <path id="Path_1473" data-name="Path 1473" d="M2208.812,809.834h11.019a1.836,1.836,0,0,0,0-3.673h-11.019a1.836,1.836,0,0,0,0,3.673Z" transform="translate(-124.54 -49.815)" fill="#090039"/>
    <path id="Path_1474" data-name="Path 1474" d="M2352.165,809.834a1.836,1.836,0,0,0,0-3.673h-.037A1.82,1.82,0,0,0,2350.31,808,1.851,1.851,0,0,0,2352.165,809.834Z" transform="translate(-249.455 -49.815)" fill="#090039"/>
    <path id="Path_1475" data-name="Path 1475" d="M2188.67,985.237a7.176,7.176,0,0,1-9.738,0,7.187,7.187,0,0,0-7.179,7.177c0,7.7,10.053,15.739,11.205,16.632a1.381,1.381,0,0,0,1.689,0c1.148-.89,11.2-8.927,11.2-16.628A7.188,7.188,0,0,0,2188.67,985.237Zm-3.709,4.792a4.411,4.411,0,0,1,8.122,2.385c0,5.359-7.05,11.829-9.284,13.745-4.41-3.73-9.283-9.376-9.283-13.745a4.413,4.413,0,0,1,8.121-2.392A1.429,1.429,0,0,0,2184.961,990.029Z" transform="translate(-93.844 -205.878)" fill="#090039"/>
  </g>
</svg>
