<svg xmlns="http://www.w3.org/2000/svg" width="95" height="95" viewBox="0 0 95 95">
  <g id="Group_2417" data-name="Group 2417" transform="translate(-43 -172)">
    <circle id="Ellipse_130" data-name="Ellipse 130" cx="47.5" cy="47.5" r="47.5" transform="translate(43 172)" fill="#ff7676"/>
    <g id="Group_2390" data-name="Group 2390" transform="translate(70 204)">
      <g id="Group_2189" data-name="Group 2189" transform="translate(38.083 31.517) rotate(180)">
        <path id="Path_1345" data-name="Path 1345" d="M155.594,669.148a23.561,23.561,0,0,1-16.754-6.942,2.369,2.369,0,1,1,3.35-3.35,19.406,19.406,0,0,0,26.809,0,2.369,2.369,0,1,1,3.35,3.35A23.561,23.561,0,0,1,155.594,669.148Z" transform="translate(-138.147 -658.164)" fill="#040505"/>
      </g>
      <path id="Path_1346" data-name="Path 1346" d="M149.647,656.3a7.95,7.95,0,0,0-11.519,0,2.506,2.506,0,0,0,.009,3.388,2.415,2.415,0,0,0,1.739.753h.009a2.407,2.407,0,0,0,1.744-.767,3.028,3.028,0,0,1,2.255-.967,3.1,3.1,0,0,1,2.27.967,2.37,2.37,0,0,0,1.734.767h.009a2.413,2.413,0,0,0,1.758-.777A2.492,2.492,0,0,0,149.647,656.3Z" transform="translate(178.896 660.443) rotate(180)" fill="#030504"/>
      <path id="Path_1347" data-name="Path 1347" d="M155.681,656.3a7.95,7.95,0,0,0-11.519,0,2.506,2.506,0,0,0,.009,3.388,2.415,2.415,0,0,0,1.739.753h.009a2.407,2.407,0,0,0,1.744-.767,3.028,3.028,0,0,1,2.255-.967,3.1,3.1,0,0,1,2.27.967,2.371,2.371,0,0,0,1.734.767h.009a2.413,2.413,0,0,0,1.758-.777A2.5,2.5,0,0,0,155.681,656.3Z" transform="translate(156.34 660.443) rotate(180)" fill="#030504"/>
    </g>
  </g>
</svg>
