<svg xmlns="http://www.w3.org/2000/svg" width="81.87" height="81.87" viewBox="0 0 81.87 81.87">
  <g id="cross_icon" transform="translate(-1469.078 -820.235)">
    <path id="Path_1471" data-name="Path 1471" d="M1519.316,902.1h-18.607a5.588,5.588,0,0,1-5.582-5.582V876.055H1474.66a5.588,5.588,0,0,1-5.582-5.582V851.867a5.588,5.588,0,0,1,5.582-5.582h20.467V825.817a5.588,5.588,0,0,1,5.582-5.582h18.607a5.588,5.588,0,0,1,5.582,5.582v20.467h20.468a5.588,5.588,0,0,1,5.582,5.582v18.607a5.588,5.588,0,0,1-5.582,5.582H1524.9v20.467A5.588,5.588,0,0,1,1519.316,902.1Zm-44.656-52.1a1.863,1.863,0,0,0-1.861,1.861v18.607a1.863,1.863,0,0,0,1.861,1.861h22.328a1.86,1.86,0,0,1,1.861,1.861v22.328a1.863,1.863,0,0,0,1.861,1.861h18.607a1.863,1.863,0,0,0,1.861-1.861V874.195a1.86,1.86,0,0,1,1.861-1.861h22.328a1.863,1.863,0,0,0,1.86-1.861V851.867a1.863,1.863,0,0,0-1.86-1.861h-22.328a1.86,1.86,0,0,1-1.861-1.861V825.817a1.863,1.863,0,0,0-1.861-1.861h-18.607a1.863,1.863,0,0,0-1.861,1.861v22.328a1.86,1.86,0,0,1-1.861,1.861Z" fill="#090039"/>
  </g>
</svg>
