<svg xmlns="http://www.w3.org/2000/svg" width="34.578" height="33.726" viewBox="0 0 34.578 33.726">
  <path id="Path_1460" data-name="Path 1460" d="M17.289,0a17.29,17.29,0,0,0-5.465,33.694c.864.158,1.18-.376,1.18-.832,0-.412-.016-1.775-.024-3.218-4.808,1.045-5.824-2.039-5.824-2.039a4.584,4.584,0,0,0-1.919-2.528c-1.571-1.072.119-1.051.119-1.051a3.629,3.629,0,0,1,2.65,1.781,3.68,3.68,0,0,0,5.031,1.435,3.7,3.7,0,0,1,1.1-2.309C10.3,24.5,6.259,23.013,6.259,16.388a6.694,6.694,0,0,1,1.778-4.64A6.228,6.228,0,0,1,8.208,7.17s1.45-.464,4.755,1.773a16.367,16.367,0,0,1,8.655,0c3.3-2.239,4.751-1.773,4.751-1.773a6.2,6.2,0,0,1,.173,4.576,6.674,6.674,0,0,1,1.777,4.64c0,6.642-4.044,8.1-7.9,8.533a4.119,4.119,0,0,1,1.173,3.2c0,2.311-.023,4.175-.023,4.744,0,.46.314,1,1.19.829A17.292,17.292,0,0,0,17.289,0Z"/>
</svg>
