<svg xmlns="http://www.w3.org/2000/svg" width="21" height="21" viewBox="0 0 21 21">
  <g id="Group_2484" data-name="Group 2484" transform="translate(-5507.369 -1246.459)">
    <path id="Path_1549" data-name="Path 1549" d="M5517.87,1248.351c2.8,0,3.136.01,4.243.061a5.825,5.825,0,0,1,1.95.362,3.478,3.478,0,0,1,1.992,1.993,5.823,5.823,0,0,1,.362,1.95c.051,1.107.062,1.439.062,4.243s-.011,3.136-.062,4.243a5.821,5.821,0,0,1-.362,1.95,3.478,3.478,0,0,1-1.992,1.993,5.826,5.826,0,0,1-1.95.362c-1.107.05-1.438.061-4.243.061s-3.136-.011-4.243-.061a5.825,5.825,0,0,1-1.95-.362,3.486,3.486,0,0,1-1.992-1.993,5.808,5.808,0,0,1-.362-1.95c-.051-1.107-.062-1.439-.062-4.243s.011-3.136.062-4.243a5.81,5.81,0,0,1,.362-1.95,3.485,3.485,0,0,1,1.992-1.993,5.824,5.824,0,0,1,1.95-.362c1.107-.05,1.439-.061,4.243-.061m0-1.892c-2.852,0-3.209.012-4.329.063a7.715,7.715,0,0,0-2.55.488,5.373,5.373,0,0,0-3.07,3.071,7.7,7.7,0,0,0-.488,2.549c-.052,1.12-.063,1.478-.063,4.329s.012,3.209.063,4.329a7.7,7.7,0,0,0,.488,2.549,5.373,5.373,0,0,0,3.07,3.071,7.716,7.716,0,0,0,2.55.488c1.12.052,1.477.063,4.329.063s3.209-.012,4.329-.063a7.712,7.712,0,0,0,2.549-.488,5.372,5.372,0,0,0,3.071-3.071,7.708,7.708,0,0,0,.488-2.549c.051-1.12.063-1.477.063-4.329s-.012-3.209-.063-4.329a7.706,7.706,0,0,0-.488-2.549,5.372,5.372,0,0,0-3.071-3.071,7.711,7.711,0,0,0-2.549-.488c-1.12-.051-1.478-.063-4.329-.063" transform="translate(0 0)" fill="#fff"/>
    <path id="Path_1550" data-name="Path 1550" d="M5963.4,1697.461a5.034,5.034,0,1,0,5.033,5.034,5.033,5.033,0,0,0-5.033-5.034m0,8.3a3.268,3.268,0,1,1,3.268-3.267,3.268,3.268,0,0,1-3.268,3.267" transform="translate(-445.535 -445.535)" fill="#fff"/>
    <path id="Path_1551" data-name="Path 1551" d="M6820.69,1568.693a1.349,1.349,0,1,1-1.349-1.349,1.349,1.349,0,0,1,1.349,1.349" transform="translate(-1295.921 -317.285)" fill="#fff"/>
  </g>
</svg>
