<svg xmlns="http://www.w3.org/2000/svg" width="21" height="21" viewBox="0 0 21 21">
  <g id="Group_2513" data-name="Group 2513" transform="translate(-135.075 -269)">
    <g id="Group_2484" data-name="Group 2484" transform="translate(135.075 269)">
      <path id="Path_1549" data-name="Path 1549" d="M2331.6,519.476c2.8,0,3.136.01,4.243.061a5.825,5.825,0,0,1,1.95.362,3.478,3.478,0,0,1,1.992,1.993,5.827,5.827,0,0,1,.362,1.95c.051,1.107.062,1.439.062,4.243s-.011,3.136-.062,4.243a5.825,5.825,0,0,1-.362,1.95,3.478,3.478,0,0,1-1.992,1.993,5.823,5.823,0,0,1-1.95.362c-1.107.05-1.438.061-4.243.061s-3.137-.011-4.243-.061a5.824,5.824,0,0,1-1.95-.362,3.486,3.486,0,0,1-1.993-1.993,5.824,5.824,0,0,1-.362-1.95c-.051-1.107-.062-1.439-.062-4.243s.011-3.136.062-4.243a5.826,5.826,0,0,1,.362-1.95,3.486,3.486,0,0,1,1.993-1.993,5.825,5.825,0,0,1,1.95-.362c1.107-.05,1.439-.061,4.243-.061m0-1.892c-2.852,0-3.209.012-4.33.063a7.716,7.716,0,0,0-2.55.488,5.374,5.374,0,0,0-3.07,3.071,7.7,7.7,0,0,0-.488,2.549c-.052,1.12-.063,1.478-.063,4.329s.012,3.209.063,4.329a7.7,7.7,0,0,0,.488,2.549,5.373,5.373,0,0,0,3.07,3.071,7.708,7.708,0,0,0,2.55.488c1.12.052,1.477.063,4.33.063s3.209-.012,4.329-.063a7.706,7.706,0,0,0,2.549-.488,5.373,5.373,0,0,0,3.071-3.071,7.716,7.716,0,0,0,.488-2.549c.051-1.12.063-1.477.063-4.329s-.012-3.209-.063-4.329a7.7,7.7,0,0,0-.488-2.549,5.373,5.373,0,0,0-3.071-3.071,7.707,7.707,0,0,0-2.549-.488c-1.12-.051-1.478-.063-4.329-.063" transform="translate(-2321.103 -517.584)" fill="#090039"/>
      <path id="Path_1550" data-name="Path 1550" d="M2347.23,538.691a5.048,5.048,0,1,0,5.048,5.049h0a5.047,5.047,0,0,0-5.046-5.049h0m0,8.324a3.277,3.277,0,1,1,3.278-3.277h0a3.277,3.277,0,0,1-3.278,3.276" transform="translate(-2336.735 -533.238)" fill="#090039"/>
      <path id="Path_1551" data-name="Path 1551" d="M2380.562,532.836a1.353,1.353,0,1,1-1.353-1.353,1.353,1.353,0,0,1,1.353,1.353h0" transform="translate(-2363.161 -527.884)" fill="#090039"/>
    </g>
  </g>
</svg>
