<svg xmlns="http://www.w3.org/2000/svg" width="11.782" height="17.108" viewBox="0 0 11.782 17.108">
  <g id="Group_2384" data-name="Group 2384" transform="translate(-23 -93.508)">
    <g id="Path_1459" data-name="Path 1459" transform="translate(23 93.508)" fill="none">
      <path d="M5.891,0a5.891,5.891,0,0,1,5.891,5.891c0,3.254-5.178,11.217-5.891,11.217S0,9.145,0,5.891A5.891,5.891,0,0,1,5.891,0Z" stroke="none"/>
      <path d="M 5.89111328125 0.9999961853027344 C 3.194143295288086 0.9999961853027344 1.000002861022949 3.194095611572266 1.000002861022949 5.891005516052246 C 1.000002861022949 7.016875267028809 1.861083030700684 9.224465370178223 3.303402900695801 11.79630470275879 C 4.344388484954834 13.65251159667969 5.323419094085693 15.06295299530029 5.89111328125 15.76399993896484 C 6.458807468414307 15.06295299530029 7.437838077545166 13.65251159667969 8.478822708129883 11.79630470275879 C 9.921143531799316 9.224465370178223 10.78222274780273 7.016875267028809 10.78222274780273 5.891005516052246 C 10.78222274780273 3.194095611572266 8.588083267211914 0.9999961853027344 5.89111328125 0.9999961853027344 M 5.89111328125 -3.814697265625e-06 C 9.144683837890625 -3.814697265625e-06 11.78222370147705 2.637495040893555 11.78222370147705 5.891005516052246 C 11.78222370147705 9.144525527954102 6.60395336151123 17.10814476013184 5.89111328125 17.10814476013184 C 5.17827320098877 17.10814476013184 2.86102294921875e-06 9.144525527954102 2.86102294921875e-06 5.891005516052246 C 2.86102294921875e-06 2.637495040893555 2.637543678283691 -3.814697265625e-06 5.89111328125 -3.814697265625e-06 Z" stroke="none" fill="#fff"/>
    </g>
    <ellipse id="Ellipse_33" data-name="Ellipse 33" cx="2.926" cy="2.926" rx="2.926" ry="2.926" transform="translate(26.003 96.44)" fill="#fff"/>
  </g>
</svg>
