<svg id="Ntbj0b.tif" xmlns="http://www.w3.org/2000/svg" width="139.999" height="46.742" viewBox="0 0 139.999 46.742">
  <g id="Group_2319" data-name="Group 2319">
    <path id="Path_1476" data-name="Path 1476" d="M3896.376,697.2c2.237,11.92,4.7,25.026,6.925,36.876,0,.014,10.637-34.391,11.517-36.917,0,0,3.462-.025,5.047-.025l11.7,36.784s4.658-24.829,6.888-36.709h6.3l-8.778,46.665h-7.063c-3.782-11.871-11.6-36.381-11.584-36.381-3.741,11.868-7.786,24.581-11.507,36.384h-7.116c-.569-2.967-8.568-44.766-8.891-46.659C3889.821,697.216,3894.315,697.2,3896.376,697.2Z" transform="translate(-3804.76 -697.133)"/>
    <path id="Path_1477" data-name="Path 1477" d="M3620.961,744.037V697.451h6.679c6.641,11.495,13.939,24.12,20.656,35.747,0,.019-.02-24.192-.02-35.766h6.271v46.624h-6.229c-6.8-11.621-14.076-24.04-20.95-35.785l-.046-.083v35.849Z" transform="translate(-3620.961 -697.337)"/>
    <path id="Path_1478" data-name="Path 1478" d="M3778.521,703.046v14.1h19.908v5.544h-19.857v15.469h21.749v5.9h-28.146v-46.61h28.137v5.594Z" transform="translate(-3724.334 -697.351)"/>
  </g>
</svg>
