<svg xmlns="http://www.w3.org/2000/svg" width="79.6" height="79.597" viewBox="0 0 79.6 79.597">
  <g id="searchimune_icon" transform="translate(-1236.447 -1204.442)">
    <g id="Group_2317" data-name="Group 2317" transform="translate(-1320.393 919.568)">
      <g id="Group_2316" data-name="Group 2316" transform="translate(2556.84 284.874)">
        <path id="Path_1470" data-name="Path 1470" d="M2629.271,364.471a7.153,7.153,0,0,1-5.069-2.1l-22.422-26.64a28.194,28.194,0,1,1,5.923-5.921l26.532,22.326c.037.032.071.065.105.1a7.165,7.165,0,0,1-5.069,12.233Zm-27.255-32.687a1.66,1.66,0,0,1,1.271.59l23.358,27.761a3.856,3.856,0,0,0,5.4-5.506l-27.7-23.307a1.659,1.659,0,0,1-.206-2.332,24.9,24.9,0,1,0-3.182,3.181A1.647,1.647,0,0,1,2602.015,331.783Z" transform="translate(-2556.84 -284.874)" fill="#090039"/>
      </g>
    </g>
    <g id="Group_2318" data-name="Group 2318" transform="translate(1253.581 1223.838)">
      <g id="Group_2185" data-name="Group 2185" transform="translate(0.919 13.539)">
        <path id="Path_1344" data-name="Path 1344" d="M169.475,665.13a14.375,14.375,0,0,1-10.226-4.237,1.446,1.446,0,0,1,2.045-2.044,11.847,11.847,0,0,0,16.36,0,1.446,1.446,0,1,1,2.045,2.044A14.368,14.368,0,0,1,169.475,665.13Z" transform="translate(-158.826 -658.423)" fill="#090039"/>
      </g>
      <g id="Group_2186" data-name="Group 2186">
        <circle id="Ellipse_4" data-name="Ellipse 4" cx="2.892" cy="2.892" r="2.892" fill="#090039"/>
      </g>
      <g id="Group_2187" data-name="Group 2187" transform="translate(17.352)">
        <circle id="Ellipse_5" data-name="Ellipse 5" cx="2.892" cy="2.892" r="2.892" fill="#090039"/>
      </g>
    </g>
  </g>
</svg>
