<svg xmlns="http://www.w3.org/2000/svg" width="89.39" height="89.39" viewBox="0 0 89.39 89.39">
  <g id="Group_2371" data-name="Group 2371" transform="translate(-141.498 -238.498)">
    <g id="Group_2188" data-name="Group 2188" transform="translate(168.807 269.504)">
      <g id="Group_2185" data-name="Group 2185" transform="translate(1.506 22.182)">
        <path id="Path_1344" data-name="Path 1344" d="M176.273,669.411a23.552,23.552,0,0,1-16.754-6.942,2.369,2.369,0,1,1,3.35-3.35,19.41,19.41,0,0,0,26.8,0,2.369,2.369,0,0,1,3.35,3.35A23.54,23.54,0,0,1,176.273,669.411Z" transform="translate(-158.826 -658.423)" fill="#090039"/>
      </g>
      <g id="Group_2186" data-name="Group 2186">
        <circle id="Ellipse_4" data-name="Ellipse 4" cx="4.738" cy="4.738" r="4.738" fill="#090039"/>
      </g>
      <g id="Group_2187" data-name="Group 2187" transform="translate(28.429)">
        <circle id="Ellipse_5" data-name="Ellipse 5" cx="4.738" cy="4.738" r="4.738" fill="#090039"/>
      </g>
    </g>
    <g id="Path_1458" data-name="Path 1458" transform="translate(141.498 238.498)" fill="none" stroke-linecap="round" stroke-dasharray="1 13">
      <path d="M44.695,0A44.695,44.695,0,1,1,0,44.695,44.695,44.695,0,0,1,44.695,0Z" stroke="none"/>
      <path d="M 44.69486618041992 -7.62939453125e-06 C 44.70089340209961 -7.62939453125e-06 44.70639419555664 -7.62939453125e-06 44.71242141723633 0 C 44.71430587768555 0 44.7161865234375 0 44.71807098388672 0 C 44.72259140014648 0 44.72599792480469 7.62939453125e-06 44.73051452636719 7.62939453125e-06 C 44.73206329345703 7.62939453125e-06 44.73367309570312 7.62939453125e-06 44.73522186279297 1.52587890625e-05 C 44.73973846435547 1.52587890625e-05 44.74352645874023 2.288818359375e-05 44.748046875 2.288818359375e-05 C 44.75006484985352 3.0517578125e-05 44.75206756591797 3.0517578125e-05 44.75408554077148 3.0517578125e-05 C 44.75860595703125 3.814697265625e-05 44.7613639831543 3.814697265625e-05 44.7658805847168 4.57763671875e-05 C 44.76799011230469 5.340576171875e-05 44.77009201049805 5.340576171875e-05 44.77220153808594 6.103515625e-05 C 44.7767219543457 6.866455078125e-05 44.7790412902832 6.866455078125e-05 44.7835578918457 7.62939453125e-05 C 44.78560256958008 8.392333984375e-05 44.78764724731445 9.1552734375e-05 44.78968811035156 9.1552734375e-05 C 44.79420471191406 9.918212890625e-05 44.79704666137695 0.0001068115234375 44.80156326293945 0.0001220703125 C 44.80358123779297 0.0001220703125 44.80560684204102 0.00012969970703125 44.80762481689453 0.00012969970703125 C 44.81063461303711 0.0001373291015625 44.81604766845703 0.000152587890625 44.81905746459961 0.00016021728515625 C 44.82114410400391 0.0001678466796875 44.82321929931641 0.00017547607421875 44.8253059387207 0.00018310546875 C 44.82831573486328 0.00019073486328125 44.83417129516602 0.00020599365234375 44.83718490600586 0.000213623046875 C 44.839111328125 0.00022125244140625 44.84104156494141 0.0002288818359375 44.84296798706055 0.00023651123046875 C 44.84598159790039 0.000244140625 44.85211944580078 0.00026702880859375 44.85512924194336 0.000274658203125 C 44.85683441162109 0.00028228759765625 44.85854339599609 0.0002899169921875 44.86024856567383 0.0002899169921875 C 44.86476135253906 0.00031280517578125 44.86894226074219 0.00032806396484375 44.87345504760742 0.00034332275390625 C 44.87489318847656 0.0003509521484375 44.87634658813477 0.0003509521484375 44.87778091430664 0.00035858154296875 C 44.8838005065918 0.0003814697265625 44.88563919067383 0.00038909912109375 44.89165878295898 0.00041961669921875 C 44.89284896850586 0.00041961669921875 44.89402389526367 0.00042724609375 44.89521026611328 0.00043487548828125 C 44.9012336730957 0.000457763671875 44.90383911132812 0.0004730224609375 44.90985870361328 0.0005035400390625 C 44.91091156005859 0.0005035400390625 44.91200256347656 0.00051116943359375 44.91305541992188 0.000518798828125 C 44.91907501220703 0.00054168701171875 44.92224884033203 0.00055694580078125 44.92826843261719 0.00058746337890625 C 44.92903137207031 0.0005950927734375 44.92980194091797 0.0005950927734375 44.93056488037109 0.00060272216796875 C 44.93658447265625 0.00063323974609375 44.94075775146484 0.0006561279296875 44.94677734375 0.0006866455078125 C 44.94729232788086 0.00069427490234375 44.94779586791992 0.00069427490234375 44.94831085205078 0.00069427490234375 C 45.1529426574707 0.0018310546875 45.35625839233398 0.00432586669921875 45.56023025512695 0.00820159912109375 C 45.56072235107422 0.008209228515625 45.56124877929688 0.0082244873046875 45.56173706054688 0.00823211669921875 C 45.5677375793457 0.0083465576171875 45.57177352905273 0.0084228515625 45.57777404785156 0.00853729248046875 C 45.57855606079102 0.00855255126953125 45.57931137084961 0.00856781005859375 45.58009338378906 0.00858306884765625 C 45.58609390258789 0.00870513916015625 45.58930206298828 0.00876617431640625 45.59530258178711 0.008880615234375 C 45.59641647338867 0.00890350341796875 45.59756851196289 0.0089263916015625 45.59868621826172 0.00894927978515625 C 45.60318374633789 0.00904083251953125 45.60784530639648 0.00913238525390625 45.61234283447266 0.00922393798828125 C 45.61401748657227 0.00925445556640625 45.61566162109375 0.0092926025390625 45.61733627319336 0.0093231201171875 C 45.62033462524414 0.0093841552734375 45.62599182128906 0.00949859619140625 45.62899017333984 0.00955963134765625 C 45.63140106201172 0.009613037109375 45.63386154174805 0.0096588134765625 45.63627243041992 0.00971221923828125 C 45.6392707824707 0.00977325439453125 45.64302825927734 0.00984954833984375 45.64602661132812 0.009918212890625 C 45.64866256713867 0.00997161865234375 45.65131759643555 0.0100250244140625 45.65395355224609 0.01007843017578125 C 45.65695190429688 0.0101470947265625 45.6598014831543 0.01020050048828125 45.66279983520508 0.0102691650390625 C 45.66617202758789 0.01033782958984375 45.66949462890625 0.01041412353515625 45.67286682128906 0.0104827880859375 C 45.67436599731445 0.0105133056640625 45.67681884765625 0.01056671142578125 45.67831802368164 0.01059722900390625 C 45.68254089355469 0.01068878173828125 45.68673706054688 0.01078033447265625 45.69095611572266 0.01087188720703125 C 45.69245529174805 0.0109100341796875 45.69249725341797 0.0109100341796875 45.69399642944336 0.0109405517578125 C 45.72761917114258 0.01168060302734375 45.76122665405273 0.012451171875 45.79483032226562 0.01326751708984375 C 45.79492950439453 0.01326751708984375 45.79488754272461 0.01326751708984375 45.79499053955078 0.01326751708984375 C 45.82195281982422 0.013916015625 45.84698486328125 0.01454925537109375 45.87393569946289 0.0152435302734375 C 47.4930419921875 0.0767822265625 48.76155471801758 1.418701171875 48.72217559814453 3.048576354980469 C 48.68247222900391 4.692726135253906 47.32720184326172 6.011741638183594 45.6868896484375 6.011741638183594 C 45.67468643188477 6.011741638183594 45.66219329833984 6.011665344238281 45.64995574951172 6.011520385742188 L 44.69486618041992 5.999992370605469 C 43.03813934326172 5.980010986328125 41.69508361816406 4.62066650390625 41.69508361816406 2.963813781738281 C 41.69508361816406 1.333351135253906 42.99551773071289 0.02237701416015625 44.61576080322266 6.103515625e-05 C 44.64287185668945 1.52587890625e-05 44.66774749755859 -7.62939453125e-06 44.69486618041992 -7.62939453125e-06 Z M 57.60428619384766 2.033935546875 C 57.89617156982422 2.033958435058594 58.19333648681641 2.077415466308594 58.48679733276367 2.168495178222656 C 58.56974029541016 2.19537353515625 58.65320205688477 2.222686767578125 58.73593139648438 2.250045776367188 C 58.73678588867188 2.250328063964844 58.73762512207031 2.250602722167969 58.73847961425781 2.250885009765625 C 58.74254608154297 2.252235412597656 58.74747848510742 2.253868103027344 58.75154495239258 2.255210876464844 C 58.75275802612305 2.255615234375 58.75397491455078 2.256019592285156 58.75518798828125 2.256416320800781 C 58.75925445556641 2.257766723632812 58.7625732421875 2.258865356445312 58.76663970947266 2.260208129882812 C 58.76863861083984 2.260871887207031 58.77059936523438 2.261520385742188 58.77259826660156 2.262184143066406 C 58.77530670166016 2.263084411621094 58.7799072265625 2.264610290527344 58.78261566162109 2.265510559082031 C 58.78469848632812 2.266204833984375 58.78678512573242 2.266891479492188 58.78886795043945 2.267585754394531 C 58.79158020019531 2.268486022949219 58.79543304443359 2.269767761230469 58.79814147949219 2.270668029785156 C 58.80078125 2.27154541015625 58.80340576171875 2.272415161132812 58.8060417175293 2.273292541503906 C 58.80875396728516 2.274192810058594 58.81117248535156 2.275001525878906 58.81388473510742 2.275901794433594 C 58.81675338745117 2.27685546875 58.81961059570312 2.277809143066406 58.82247924804688 2.278762817382812 C 58.82519149780273 2.2796630859375 58.82688522338867 2.280227661132812 58.82959747314453 2.2811279296875 C 58.83297348022461 2.282257080078125 58.83638763427734 2.283393859863281 58.83976745605469 2.284515380859375 C 58.84111785888672 2.28497314453125 58.8436279296875 2.285804748535156 58.8449821472168 2.2862548828125 C 58.84882736206055 2.287544250488281 58.85268402099609 2.288825988769531 58.85652542114258 2.290107727050781 C 58.85787963867188 2.290565490722656 58.85924530029297 2.291015625 58.86059951782227 2.291473388671875 C 58.86497497558594 2.292930603027344 58.86930847167969 2.294380187988281 58.87368011474609 2.29583740234375 C 58.87368011474609 2.29583740234375 58.87606048583984 2.296638488769531 58.87606048583984 2.296638488769531 C 58.88082122802734 2.298225402832031 58.88558959960938 2.299819946289062 58.89035034179688 2.301414489746094 C 58.89035034179688 2.301414489746094 58.891845703125 2.301918029785156 58.891845703125 2.301918029785156 C 59.08174133300781 2.365486145019531 59.27105712890625 2.430290222167969 59.45980834960938 2.496322631835938 C 59.45980834960938 2.496322631835938 59.46034240722656 2.496513366699219 59.46034240722656 2.496513366699219 C 59.46504974365234 2.498161315917969 59.46977233886719 2.499809265136719 59.47447967529297 2.501457214355469 C 59.47582626342773 2.501930236816406 59.47631072998047 2.502098083496094 59.47765350341797 2.502571105957031 C 59.48187637329102 2.504051208496094 59.48609924316406 2.505531311035156 59.49031829833984 2.507011413574219 C 59.49166488647461 2.507484436035156 59.49293518066406 2.507926940917969 59.49428176879883 2.508399963378906 C 59.49784851074219 2.509651184082031 59.50141525268555 2.510902404785156 59.50498199462891 2.512153625488281 C 59.50767135620117 2.513099670410156 59.50895309448242 2.5135498046875 59.51164245605469 2.514495849609375 C 59.51451110839844 2.5155029296875 59.51737213134766 2.516510009765625 59.52024078369141 2.51751708984375 C 59.52293014526367 2.518463134765625 59.52582550048828 2.519477844238281 59.52851104736328 2.520423889160156 C 59.53070831298828 2.521194458007812 59.53286743164062 2.521957397460938 59.53506088256836 2.522727966308594 C 59.53909301757812 2.524147033691406 59.54167556762695 2.525054931640625 59.54570770263672 2.526473999023438 C 59.54714202880859 2.526985168457031 59.54856109619141 2.527481079101562 59.54999542236328 2.527984619140625 C 59.55403137207031 2.529411315917969 59.55946350097656 2.531326293945312 59.56349945068359 2.532745361328125 C 59.56366729736328 2.532806396484375 59.56380844116211 2.532852172851562 59.5639762878418 2.532913208007812 C 59.60430908203125 2.547134399414062 59.64250183105469 2.5606689453125 59.68278503417969 2.575004577636719 C 61.20132064819336 3.1368408203125 61.98915863037109 4.805137634277344 61.44566345214844 6.341377258300781 C 61.00621032714844 7.583503723144531 59.82887268066406 8.365196228027344 58.57616806030273 8.365196228027344 C 58.25359344482422 8.365196228027344 57.92588043212891 8.313323974609375 57.60464859008789 8.204139709472656 L 56.70412063598633 7.898048400878906 C 55.13541030883789 7.364845275878906 54.28015899658203 5.655647277832031 54.79386520385742 4.0804443359375 C 55.20322799682617 2.8251953125 56.35810089111328 2.033821105957031 57.60428619384766 2.033935546875 Z M 69.279541015625 8.003639221191406 C 69.873291015625 8.003677368164062 70.47271728515625 8.182441711425781 70.99382019042969 8.552421569824219 C 71.10125732421875 8.630729675292969 71.20819091796875 8.709403991699219 71.31490325927734 8.788650512695312 C 71.31526184082031 8.788917541503906 71.31560516357422 8.789169311523438 71.31596374511719 8.789436340332031 C 71.3193359375 8.791938781738281 71.32337951660156 8.794944763183594 71.32675170898438 8.797447204589844 C 71.32831573486328 8.798606872558594 71.32986450195312 8.799766540527344 71.33142852783203 8.800926208496094 C 71.33367919921875 8.802597045898438 71.33735656738281 8.805335998535156 71.33960723876953 8.8070068359375 C 71.34190368652344 8.8087158203125 71.34420776367188 8.810432434082031 71.34651184082031 8.812141418457031 C 71.3487548828125 8.813812255859375 71.34966278076172 8.814483642578125 71.35190582275391 8.816154479980469 C 71.35508728027344 8.818519592285156 71.35825347900391 8.820884704589844 71.36143493652344 8.823249816894531 C 71.36255645751953 8.824081420898438 71.36388397216797 8.8250732421875 71.36500549316406 8.825904846191406 C 71.36891937255859 8.828819274902344 71.37278747558594 8.831703186035156 71.37670135498047 8.834625244140625 C 71.37782287597656 8.835456848144531 71.37662506103516 8.834564208984375 71.37774658203125 8.835403442382812 C 71.38214111328125 8.838676452636719 71.38652801513672 8.841949462890625 71.39092254638672 8.845222473144531 C 71.39204406738281 8.846061706542969 71.39016723632812 8.844657897949219 71.39128875732422 8.845497131347656 C 71.57495880126953 8.982498168945312 71.75752258300781 9.120864868164062 71.93901062011719 9.260612487792969 C 71.93909454345703 9.260673522949219 71.93914031982422 9.260711669921875 71.93922424316406 9.260765075683594 C 71.96027374267578 9.2769775390625 71.98143768310547 9.293304443359375 72.00246429443359 9.309555053710938 C 73.27197265625 10.31564331054688 73.50244140625 12.14706420898438 72.50795745849609 13.43861389160156 C 71.91189575195312 14.21269989013672 71.00894165039062 14.61997985839844 70.09656524658203 14.61997985839844 C 69.46165466308594 14.61997985839844 68.82215118408203 14.42271423339844 68.27842712402344 14.01455688476562 L 67.516357421875 13.4425048828125 C 66.19129943847656 12.44783020019531 65.91024780273438 10.55750274658203 66.88859558105469 9.220359802246094 C 67.47116851806641 8.42413330078125 68.36875152587891 8.003585815429688 69.279541015625 8.003639221191406 Z M 78.53431701660156 17.29969024658203 C 79.43883514404297 17.29977416992188 80.3289794921875 17.71482086181641 80.90970611572266 18.49552154541016 C 81.15692901611328 18.83663177490234 81.39815521240234 19.17955780029297 81.63587951660156 19.52783203125 C 82.53216552734375 20.87663269042969 82.18585205078125 22.68922424316406 80.84146881103516 23.61046600341797 C 80.31951141357422 23.9681396484375 79.72263336181641 24.13971710205078 79.13103485107422 24.13971710205078 C 78.17352294921875 24.13971710205078 77.22990417480469 23.69017791748047 76.64068603515625 22.85255432128906 L 76.09252166748047 22.07330322265625 C 75.13925170898438 20.7181396484375 75.45548248291016 18.8333740234375 76.798828125 17.86354064941406 C 77.32628631591797 17.48274993896484 77.93338775634766 17.29962921142578 78.53431701660156 17.29969024658203 Z M 84.45670318603516 28.99700546264648 C 85.69847106933594 28.9970588684082 86.84508514404297 29.78271484375 87.25892639160156 31.01976013183594 C 87.26722717285156 31.04562759399414 87.27500152587891 31.06990432739258 87.28325653076172 31.09579086303711 C 87.28334808349609 31.0960807800293 87.28341674804688 31.0963020324707 87.28350067138672 31.09659194946289 C 87.39479064941406 31.44541168212891 87.50189971923828 31.79608535766602 87.60478973388672 32.14857482910156 C 87.60482025146484 32.1486701965332 87.6048583984375 32.14877700805664 87.60488128662109 32.14887237548828 C 87.61251831054688 32.17503356933594 87.619873046875 32.20031356811523 87.62746429443359 32.22649383544922 C 88.05924987792969 33.78729248046875 87.16572570800781 35.40169525146484 85.60124969482422 35.85835647583008 C 85.31953430175781 35.94058990478516 85.03513336181641 35.97975158691406 84.75486755371094 35.97975158691406 C 83.45279693603516 35.97975158691406 82.24338531494141 35.13373947143555 81.84515380859375 33.82981109619141 L 81.56733703613281 32.92017364501953 C 81.08338928222656 31.33557510375977 81.97068786621094 29.64277648925781 83.54915618896484 29.13920974731445 C 83.85128784179688 29.04282379150391 84.15670776367188 28.99699020385742 84.45670318603516 28.99700546264648 Z M 86.42472076416016 41.96238708496094 C 86.43108367919922 41.96238708496094 86.43755340576172 41.96240997314453 86.44392395019531 41.96244812011719 C 88.07414245605469 41.97266387939453 89.37681579589844 43.2811279296875 89.38927459716797 44.90121078491211 C 89.38876342773438 45.01258087158203 89.38786315917969 45.1236686706543 89.38654327392578 45.23484420776367 C 89.38653564453125 45.23556137084961 89.38652801513672 45.23623657226562 89.38652038574219 45.23695373535156 C 89.38646697998047 45.24146270751953 89.38639831542969 45.24680709838867 89.38634490966797 45.25131225585938 C 89.38632965087891 45.25254440307617 89.38631439208984 45.25378799438477 89.38629913330078 45.25502014160156 C 89.38626098632812 45.25802230834961 89.38621520996094 45.2615852355957 89.38618469238281 45.26459121704102 C 89.38277435302734 45.53714370727539 89.37693023681641 45.80913543701172 89.36866760253906 46.08050155639648 C 89.36866760253906 46.08060455322266 89.36866760253906 46.08060455322266 89.36865997314453 46.08070755004883 C 89.36788940429688 46.10612869262695 89.36700439453125 46.13425064086914 89.36618804931641 46.15966415405273 C 89.29585266113281 47.74750518798828 87.99574279785156 48.9901008605957 86.40798950195312 48.9901008605957 C 86.37716674804688 48.9901008605957 86.34607696533203 48.98962783813477 86.31504821777344 48.98868560791016 C 84.65895843505859 48.93824768066406 83.341064453125 47.55444717407227 83.37144470214844 45.89786529541016 L 83.38895416259766 44.94315719604492 C 83.41924285888672 43.29294586181641 84.77650451660156 41.96233367919922 86.42472076416016 41.96238708496094 Z M 84.28973388671875 54.89755249023438 C 84.60652923583984 54.89756011962891 84.92829895019531 54.94758224487305 85.24423217773438 55.0528678894043 C 86.79048919677734 55.56816482543945 87.62255096435547 57.21533966064453 87.13210296630859 58.75884246826172 C 87.12356567382812 58.78460693359375 87.11546325683594 58.80900573730469 87.10688781738281 58.83474731445312 C 87.10678863525391 58.83503723144531 87.10672760009766 58.83519744873047 87.10662841796875 58.83548355102539 C 86.99055480957031 59.18381118774414 86.87030029296875 59.53022766113281 86.74594116210938 59.87468719482422 C 86.74594116210938 59.87468719482422 86.74594116210938 59.87468719482422 86.74594116210938 59.87468719482422 C 86.73674774169922 59.900146484375 86.72750854492188 59.92565155029297 86.71827697753906 59.95108795166016 C 86.27167510986328 61.13503265380859 85.15235137939453 61.8683967590332 83.95289611816406 61.8683967590332 C 83.617431640625 61.8683967590332 83.27552032470703 61.81098175048828 82.94052124023438 61.69002914428711 C 81.38211822509766 61.12737274169922 80.55921173095703 59.40237426757812 81.10250091552734 57.83712005615234 L 81.41441345214844 56.93852233886719 C 81.8485107421875 55.6878662109375 83.03034973144531 54.89752197265625 84.28973388671875 54.89755249023438 Z M 78.22312927246094 66.51968383789062 C 78.85208892822266 66.51970672607422 79.48580169677734 66.71334075927734 80.02671813964844 67.11442565917969 C 81.33610534667969 68.08530426025391 81.61460113525391 69.90993499755859 80.66806030273438 71.22446441650391 C 80.65226745605469 71.245849609375 80.63624572753906 71.26748657226562 80.62041473388672 71.28884887695312 C 80.62035369873047 71.28892517089844 80.620361328125 71.28890991210938 80.62030029296875 71.28899383544922 C 80.52515411376953 71.41731262207031 80.42935180664062 71.54508972167969 80.33286285400391 71.67235565185547 C 80.33201599121094 71.67346954345703 80.331787109375 71.67377471923828 80.33094024658203 71.67488861083984 C 80.32827758789062 71.67840576171875 80.32563781738281 71.681884765625 80.32296752929688 71.68540191650391 C 80.32212066650391 71.68651580810547 80.32126617431641 71.68764495849609 80.32041931152344 71.68875885009766 C 80.31821441650391 71.69166564941406 80.31600189208984 71.694580078125 80.31379699707031 71.69747924804688 C 80.31295013427734 71.69859313964844 80.31050872802734 71.70182037353516 80.30966186523438 71.70293426513672 C 80.30799865722656 71.70512390136719 80.30635070800781 71.70729064941406 80.30467987060547 71.70948791503906 C 80.30214691162109 71.71282958984375 80.30133819580078 71.71389007568359 80.29879760742188 71.71723175048828 C 80.29804992675781 71.71820831298828 80.29729461669922 71.71920776367188 80.29654693603516 71.72018432617188 C 80.16702270507812 71.89054107666016 80.03616333007812 72.06015014648438 79.90426635742188 72.22856903076172 C 79.31953430175781 72.95623779296875 78.46309661865234 73.33698272705078 77.59628295898438 73.33698272705078 C 76.95947265625 73.33698272705078 76.31700134277344 73.13139343261719 75.7728271484375 72.70684814453125 C 74.46649932861328 71.68768310546875 74.22068786621094 69.79246520996094 75.22377777099609 68.4737548828125 L 75.80066680908203 67.71531677246094 C 76.39606475830078 66.93257904052734 77.30458068847656 66.51966094970703 78.22312927246094 66.51968383789062 Z M 68.84101104736328 75.69710540771484 C 69.79229736328125 75.6971435546875 70.73043060302734 76.14073181152344 71.32083129882812 76.96958923339844 C 72.26655578613281 78.29725646972656 71.96800994873047 80.11883544921875 70.66189575195312 81.07693481445312 C 70.6402587890625 81.0924072265625 70.61874389648438 81.10776519775391 70.59707641601562 81.12319183349609 C 70.59690856933594 81.12330627441406 70.59684753417969 81.12335205078125 70.5966796875 81.12346649169922 C 70.44746398925781 81.22975921630859 70.29753875732422 81.33517456054688 70.14695739746094 81.43967437744141 C 70.14695739746094 81.43967437744141 70.14682006835938 81.43977355957031 70.14682006835938 81.43977355957031 C 70.12843322753906 81.45252990722656 70.11004638671875 81.46527099609375 70.09164428710938 81.47800445556641 C 70.09164428710938 81.47800445556641 70.08981323242188 81.47927093505859 70.08981323242188 81.47927093505859 C 70.08567047119141 81.48213195800781 70.08151245117188 81.48501586914062 70.07736206054688 81.48787689208984 C 70.07736206054688 81.48787689208984 70.07584381103516 81.48892974853516 70.07584381103516 81.48892974853516 C 70.0718994140625 81.49165344238281 70.06794738769531 81.494384765625 70.06400299072266 81.49710845947266 C 70.06400299072266 81.49710845947266 70.06144714355469 81.49887847900391 70.06144714355469 81.49887847900391 C 70.05757904052734 81.50154876708984 70.05374908447266 81.50418853759766 70.04988098144531 81.50685882568359 C 70.04988098144531 81.50685882568359 70.04741668701172 81.50856018066406 70.04741668701172 81.50856018066406 C 70.04409790039062 81.51084899902344 70.04079437255859 81.51312255859375 70.0374755859375 81.51541137695312 C 70.03517150878906 81.51700592041016 70.03507995605469 81.51706695556641 70.03277587890625 81.51865386962891 C 70.02914428710938 81.52116394042969 70.02550506591797 81.52366638183594 70.02188110351562 81.52616882324219 C 70.02188110351562 81.52616882324219 70.01930236816406 81.52794647216797 70.01930236816406 81.52794647216797 C 70.01567077636719 81.53044128417969 70.01205444335938 81.53293609619141 70.0084228515625 81.53543090820312 C 70.00726318359375 81.53623199462891 70.00604248046875 81.53707122802734 70.00489044189453 81.53786468505859 C 70.00114440917969 81.54044342041016 69.99739074707031 81.54302978515625 69.99364471435547 81.54560089111328 C 69.99249267578125 81.54639434814453 69.99217987060547 81.54660797119141 69.99102783203125 81.54740142822266 C 69.98764801025391 81.54972839355469 69.98426818847656 81.55204772949219 69.98089599609375 81.55436706542969 C 69.979736328125 81.55516052246094 69.97781372070312 81.55648803710938 69.97666168212891 81.55728149414062 C 69.97213745117188 81.56038665771484 69.96758270263672 81.56351470947266 69.96305847167969 81.56661987304688 C 69.96305847167969 81.56661987304688 69.96296691894531 81.56668090820312 69.96296691894531 81.56668090820312 C 69.95950317382812 81.56906127929688 69.9560546875 81.57142639160156 69.95258331298828 81.57381439208984 C 69.95143127441406 81.57460021972656 69.94960784912109 81.57585144042969 69.94845581054688 81.57664489746094 C 69.94415283203125 81.57959747314453 69.93985748291016 81.58254241943359 69.93555450439453 81.58549499511719 C 69.93555450439453 81.58549499511719 69.93460845947266 81.58613586425781 69.93460845947266 81.58613586425781 C 69.93161773681641 81.58818817138672 69.92863464355469 81.59023284912109 69.92564392089844 81.59228515625 C 69.92333984375 81.59386444091797 69.91967010498047 81.59637451171875 69.9173583984375 81.59795379638672 C 69.908935546875 81.60372161865234 69.90052032470703 81.60948181152344 69.89209747314453 81.61524963378906 C 69.89209747314453 81.61524963378906 69.89170837402344 81.61550903320312 69.89170837402344 81.61550903320312 C 69.88712310791016 81.61864471435547 69.88253021240234 81.62178802490234 69.87794494628906 81.62491607666016 C 69.87678527832031 81.62570953369141 69.8780517578125 81.62484741210938 69.87689208984375 81.62563323974609 C 69.87266540527344 81.62852478027344 69.86839294433594 81.63143920898438 69.86416625976562 81.63433074951172 C 69.86300659179688 81.63511657714844 69.86192321777344 81.63585662841797 69.86077117919922 81.63665008544922 C 69.85230255126953 81.64242553710938 69.84388732910156 81.64817047119141 69.83541107177734 81.65394592285156 C 69.83541107177734 81.65394592285156 69.83456420898438 81.65451812744141 69.83456420898438 81.65451812744141 C 69.82540893554688 81.66075897216797 69.81623840332031 81.66699981689453 69.80708312988281 81.67323303222656 C 69.80708312988281 81.67323303222656 69.80608367919922 81.67391204833984 69.80608367919922 81.67391204833984 C 69.7684326171875 81.69953155517578 69.73074340820312 81.72509002685547 69.69300842285156 81.75059509277344 C 69.69300842285156 81.75059509277344 69.69300842285156 81.75059509277344 69.69300842285156 81.75059509277344 C 69.66974639892578 81.76631927490234 69.64951324462891 81.77996826171875 69.62626647949219 81.79562377929688 C 69.12455749511719 82.12457275390625 68.56048583984375 82.28253173828125 68.00241851806641 82.28253173828125 C 67.05380249023438 82.28253173828125 66.12302398681641 81.82574462890625 65.54833984375 80.97552490234375 C 64.62049865722656 79.60284423828125 64.97179412841797 77.72428131103516 66.33299255371094 76.7796630859375 L 67.11564636230469 76.23650360107422 C 67.64080810546875 75.87206268310547 68.24346923828125 75.69708251953125 68.84101104736328 75.69710540771484 Z M 57.09793090820312 81.51506805419922 C 58.39318084716797 81.51514434814453 59.59834289550781 82.35209655761719 60.00248718261719 83.64764404296875 C 60.48781585693359 85.20344543457031 59.63730239868164 86.84113311767578 58.09832382202148 87.34516906738281 C 58.07374954223633 87.35288238525391 58.04626083374023 87.36148071289062 58.02166748046875 87.36915588378906 C 58.02147674560547 87.36921691894531 58.02131652832031 87.3692626953125 58.0211181640625 87.36932373046875 C 57.82472229003906 87.43058776855469 57.62771987915039 87.49054718017578 57.43016815185547 87.54916381835938 C 57.43016815185547 87.54916381835938 57.42938232421875 87.54940032958984 57.42938232421875 87.54940032958984 C 57.42481231689453 87.55075836181641 57.42021942138672 87.55211639404297 57.4156494140625 87.55347442626953 C 57.4156494140625 87.55347442626953 57.41238784790039 87.55443572998047 57.41238784790039 87.55443572998047 C 57.40861129760742 87.55555725097656 57.4047966003418 87.55668640136719 57.40101623535156 87.55780792236328 C 57.39826965332031 87.55861663818359 57.39823913574219 87.55863189697266 57.39549255371094 87.55944061279297 C 57.39246368408203 87.56034088134766 57.38944625854492 87.56123352050781 57.38641738891602 87.56212615966797 C 57.3836669921875 87.56293487548828 57.38106155395508 87.56370544433594 57.37831115722656 87.56452178955078 C 57.37650680541992 87.56505584716797 57.37469100952148 87.56558990478516 57.37288665771484 87.56612396240234 C 57.3687629699707 87.56733703613281 57.36522674560547 87.56838226318359 57.36109924316406 87.56960296630859 C 57.36022186279297 87.56986236572266 57.3593635559082 87.57011413574219 57.35848236083984 87.57037353515625 C 57.3543586730957 87.57158660888672 57.34832763671875 87.5733642578125 57.34420394897461 87.5745849609375 C 57.34400939941406 87.57463836669922 57.34381484985352 87.57469940185547 57.34362030029297 87.57475280761719 C 57.19232559204102 87.61931610107422 57.04058074951172 87.66312408447266 56.88862228393555 87.70611572265625 C 56.62928771972656 87.77600860595703 56.36879348754883 87.80945587158203 56.11249160766602 87.80945587158203 C 54.82369995117188 87.80945587158203 53.6427116394043 86.96368408203125 53.27024841308594 85.65648651123047 C 52.81623077392578 84.06304931640625 53.7352294921875 82.38726806640625 55.32292175292969 81.91352081298828 L 56.23434066772461 81.64155578613281 C 56.52156448364258 81.55585479736328 56.81185531616211 81.51504516601562 57.09793090820312 81.51506805419922 Z M 43.16897201538086 83.36221313476562 C 43.19392013549805 83.36221313476562 43.21923065185547 83.36251831054688 43.24430084228516 83.36313629150391 L 44.19870376586914 83.38662719726562 C 45.85504913330078 83.42742919921875 47.18097686767578 84.80352020263672 47.16021347045898 86.46025085449219 C 47.13979721069336 88.09068298339844 45.82304382324219 89.38529205322266 44.20249557495117 89.3870849609375 C 44.17544555664062 89.38678741455078 44.15093994140625 89.38650512695312 44.1239013671875 89.38616943359375 C 44.12380218505859 89.38616180419922 44.12363815307617 89.38616180419922 44.12353897094727 89.38615417480469 C 44.020751953125 89.38487243652344 43.91803359985352 89.38323974609375 43.81541442871094 89.38125610351562 C 43.81391143798828 89.3812255859375 43.81471633911133 89.38124847412109 43.81321334838867 89.38121795654297 C 43.80945205688477 89.38114166259766 43.80568313598633 89.38107299804688 43.80192184448242 89.38099670410156 C 43.79892349243164 89.38093566894531 43.79796600341797 89.38092041015625 43.79496765136719 89.380859375 C 43.79248046875 89.38081359863281 43.79001998901367 89.38076019287109 43.78753280639648 89.38071441650391 C 43.78303527832031 89.38062286376953 43.78067779541016 89.38057708740234 43.77618026733398 89.38048553466797 C 43.77472305297852 89.38045501708984 43.77326202392578 89.38042449951172 43.77180862426758 89.38039398193359 C 43.76731109619141 89.38030242919922 43.76267242431641 89.38021087646484 43.75817489624023 89.38011932373047 C 43.75709915161133 89.38009643554688 43.75600051879883 89.38007354736328 43.75492477416992 89.38005065917969 C 43.48356628417969 89.37446594238281 43.21443557739258 89.36648559570312 42.94428634643555 89.35608673095703 C 41.32638931274414 89.27391815185547 40.07513809204102 87.91631317138672 40.135009765625 86.28724670410156 C 40.1949462890625 84.65658569335938 41.54580307006836 83.36205291748047 43.16897201538086 83.36221313476562 Z M 30.31266403198242 80.84416961669922 C 30.64780807495117 80.84416961669922 30.98812484741211 80.90010070800781 31.32079315185547 81.01797485351562 L 32.21735763549805 81.33563232421875 C 33.77906799316406 81.88897705078125 34.61224746704102 83.60904693603516 34.07831954956055 85.17752075195312 C 33.65716552734375 86.41464996337891 32.51134872436523 87.18791198730469 31.27965927124023 87.18791198730469 C 30.97533798217773 87.18791198730469 30.66573333740234 87.14070129394531 30.36057281494141 87.04160308837891 C 30.33488464355469 87.03290557861328 30.30973052978516 87.02437591552734 30.28406143188477 87.01563262939453 C 30.28396606445312 87.01560211181641 30.28388977050781 87.01557159423828 30.28379440307617 87.01554107666016 C 30.12128448486328 86.96022033691406 29.95917129516602 86.90397644042969 29.79750442504883 86.84684753417969 C 29.79750442504883 86.84684753417969 29.79603958129883 86.84632873535156 29.79603958129883 86.84632873535156 C 29.79120635986328 86.84461975097656 29.78633117675781 86.8428955078125 29.78150177001953 86.8411865234375 C 29.78150177001953 86.8411865234375 29.77985763549805 86.84060668945312 29.77985763549805 86.84060668945312 C 29.77603912353516 86.83924865722656 29.77220916748047 86.83789825439453 29.76839065551758 86.83654022216797 C 29.76570510864258 86.83559417724609 29.76554870605469 86.83553314208984 29.76285934448242 86.83458709716797 C 29.75944137573242 86.8333740234375 29.75603866577148 86.83216857910156 29.75262069702148 86.83095550537109 C 29.74993515014648 86.83000183105469 29.74966430664062 86.82990264892578 29.74697494506836 86.82894897460938 C 29.74370574951172 86.82778930664062 29.74041366577148 86.82662200927734 29.73714447021484 86.82546234130859 C 29.73445892333984 86.82450866699219 29.73315048217773 86.82404327392578 29.73046493530273 86.82308959960938 C 29.72671127319336 86.82175445556641 29.72295761108398 86.82041931152344 29.71920394897461 86.819091796875 C 29.71651840209961 86.81813049316406 29.71754455566406 86.81849670410156 29.71485900878906 86.81754302978516 C 29.71140289306641 86.81631469726562 29.70795822143555 86.81508636474609 29.70449829101562 86.81385803222656 C 29.70181274414062 86.81290435791016 29.70077133178711 86.81253051757812 29.69808578491211 86.81157684326172 C 29.69509124755859 86.81050872802734 29.69208145141602 86.80943298339844 29.6890869140625 86.80837249755859 C 29.68640518188477 86.80741119384766 29.68482208251953 86.80684661865234 29.6821403503418 86.80589294433594 C 29.67931365966797 86.80488586425781 29.67645263671875 86.80386352539062 29.67362976074219 86.8028564453125 C 29.67094421386719 86.80189514160156 29.6683349609375 86.80096435546875 29.6656494140625 86.80001068115234 C 29.66280364990234 86.79899597167969 29.6599235534668 86.79796600341797 29.65707778930664 86.79695129394531 C 29.65439224243164 86.79598999023438 29.65258407592773 86.79534149169922 29.64989852905273 86.79438781738281 C 29.64694976806641 86.79332733154297 29.64398956298828 86.79227447509766 29.64104080200195 86.79121398925781 C 29.63835906982422 86.79026031494141 29.63609313964844 86.78944396972656 29.63340759277344 86.78848266601562 C 29.63039779663086 86.78740692138672 29.62735748291016 86.78632354736328 29.62434387207031 86.78524017333984 C 29.62166213989258 86.78427886962891 29.62031936645508 86.78379821777344 29.61763763427734 86.7828369140625 C 29.61410140991211 86.78157043457031 29.61058807373047 86.78031158447266 29.60704803466797 86.77904510498047 C 29.60436630249023 86.77808380126953 29.60416793823242 86.77801513671875 29.60148620605469 86.77704620361328 C 29.59685516357422 86.775390625 29.59221649169922 86.77371978759766 29.58758163452148 86.77205657958984 C 29.58624267578125 86.77157592773438 29.58708190917969 86.77188110351562 29.58574295043945 86.77140045166016 C 29.58216094970703 86.77011108398438 29.57859802246094 86.76882934570312 29.57501983642578 86.76754760742188 C 29.57233810424805 86.76657867431641 29.57160949707031 86.76631927490234 29.56892776489258 86.76535797119141 C 29.56541061401367 86.76409149169922 29.56184387207031 86.76280975341797 29.55832672119141 86.76154327392578 C 29.55564880371094 86.76057434082031 29.55591201782227 86.76067352294922 29.55323028564453 86.75970458984375 C 29.54940032958984 86.75833129882812 29.54560470581055 86.7569580078125 29.54177474975586 86.75558471679688 C 29.54043579101562 86.75509643554688 29.53829193115234 86.75432586669922 29.53694915771484 86.75384521484375 C 29.52695465087891 86.750244140625 29.51694869995117 86.74662780761719 29.5069580078125 86.74301910400391 C 29.50561904907227 86.74253845214844 29.5062141418457 86.74275207519531 29.50487518310547 86.74227142333984 C 29.41878128051758 86.71115875244141 29.33282089233398 86.67979431152344 29.24697494506836 86.64817810058594 C 29.24687957763672 86.64813995361328 29.24678421020508 86.64810943603516 29.24668884277344 86.6480712890625 C 29.22130584716797 86.63872528076172 29.19618988037109 86.62944793701172 29.17082977294922 86.62004852294922 C 27.65926361083984 86.03891754150391 26.8928337097168 84.36045074462891 27.45613861083984 82.83115386962891 C 27.90682601928711 81.60758972167969 29.07445526123047 80.84416961669922 30.31266403198242 80.84416961669922 Z M 18.87236022949219 74.44242858886719 C 19.52002716064453 74.44247436523438 20.17216491699219 74.64766693115234 20.72162628173828 75.07115936279297 L 21.47640991210938 75.65288543701172 C 22.78871917724609 76.66432189941406 23.04572296142578 78.55806732177734 22.05043029785156 79.88266754150391 C 21.46598815917969 80.66050720214844 20.57969665527344 81.06911468505859 19.68184661865234 81.06911468505859 C 19.07544708251953 81.06911468505859 18.46379089355469 80.88273620605469 17.93630981445312 80.497802734375 C 17.91502380371094 80.48187255859375 17.89366149902344 80.46585083007812 17.87241363525391 80.44988250732422 C 17.87232971191406 80.44982147216797 17.87225341796875 80.44976806640625 17.87217712402344 80.44969940185547 C 17.57894134521484 80.22937774658203 17.28850555419922 80.00552368164062 17.00093841552734 79.77821350097656 C 17.00086212158203 79.77815246582031 17.00088500976562 79.77817535400391 17.00080871582031 79.77810668945312 C 16.97996520996094 79.76164245605469 16.9588623046875 79.74491882324219 16.93804931640625 79.72840881347656 C 15.68142700195312 78.70626831054688 15.47431945800781 76.87210083007812 16.48513793945312 75.59329986572266 C 17.0823974609375 74.83772277832031 17.97317504882812 74.44236755371094 18.87236022949219 74.44242858886719 Z M 9.959678649902344 64.80887603759766 C 10.9305419921875 64.80892181396484 11.88605499267578 65.27140808105469 12.47239685058594 66.12789916992188 L 13.01053619384766 66.91397094726562 C 13.94646453857422 68.28115844726562 13.60628509521484 70.16175842285156 12.25070190429688 71.11441040039062 C 11.7296142578125 71.48061370849609 11.1343994140625 71.65637969970703 10.54581451416016 71.65637969970703 C 9.627975463867188 71.65637969970703 8.726371765136719 71.22891998291016 8.147689819335938 70.42942810058594 C 8.131546020507812 70.40654754638672 8.117774963378906 70.38698577880859 8.101676940917969 70.36407470703125 C 8.101615905761719 70.36399078369141 8.101577758789062 70.36392974853516 8.101524353027344 70.36384582519531 C 8.062110900878906 70.30776977539062 8.022811889648438 70.25157928466797 7.983650207519531 70.1953125 C 7.983650207519531 70.1953125 7.98175048828125 70.19258117675781 7.98175048828125 70.19258117675781 C 7.979194641113281 70.18890380859375 7.976615905761719 70.18520355224609 7.974067687988281 70.18152618408203 C 7.9732666015625 70.18037414550781 7.971115112304688 70.17728424072266 7.970314025878906 70.17613220214844 C 7.968528747558594 70.17356109619141 7.966766357421875 70.17103576660156 7.964981079101562 70.16845703125 C 7.96258544921875 70.16500854492188 7.960273742675781 70.16168212890625 7.957870483398438 70.15823364257812 C 7.957160949707031 70.15719604492188 7.956466674804688 70.15620422363281 7.95574951171875 70.15517425537109 C 7.850318908691406 70.00332641601562 7.746315002441406 69.85153198242188 7.642723083496094 69.69831848144531 C 7.588272094726562 69.61778259277344 7.534095764160156 69.53708648681641 7.480155944824219 69.4561767578125 C 7.479988098144531 69.45592498779297 7.479820251464844 69.45568084716797 7.479652404785156 69.45542907714844 C 7.465660095214844 69.43444061279297 7.449966430664062 69.41085815429688 7.436004638671875 69.38984680175781 C 6.555915832519531 68.02960968017578 6.925155639648438 66.22087860107422 8.281593322753906 65.31654357910156 C 8.796539306640625 64.97323608398438 9.380790710449219 64.80884552001953 9.959678649902344 64.80887603759766 Z M 4.48883056640625 52.8978271484375 C 5.805755615234375 52.8978385925293 7.024139404296875 53.76333236694336 7.409339904785156 55.08528518676758 L 7.675430297851562 55.99848556518555 C 8.138954162597656 57.58919525146484 7.229957580566406 59.27043151855469 5.645118713378906 59.75363159179688 C 5.354545593261719 59.84222793579102 5.061553955078125 59.8843879699707 4.773727416992188 59.8843879699707 C 3.517440795898438 59.8843879699707 2.361953735351562 59.08046722412109 1.959945678710938 57.82573699951172 C 1.95196533203125 57.79972457885742 1.944374084472656 57.77490234375 1.936431884765625 57.74887084960938 C 1.936378479003906 57.74867630004883 1.93634033203125 57.74855041503906 1.936286926269531 57.74835968017578 C 1.916282653808594 57.68275451660156 1.89642333984375 57.61710357666016 1.876716613769531 57.55136871337891 C 1.876716613769531 57.55136871337891 1.876541137695312 57.55078887939453 1.876541137695312 57.55078887939453 C 1.875114440917969 57.5460319519043 1.873680114746094 57.54124450683594 1.872261047363281 57.53649139404297 C 1.871849060058594 57.53511810302734 1.871322631835938 57.53335952758789 1.87091064453125 57.53198623657227 C 1.869865417480469 57.52849578857422 1.868827819824219 57.52503204345703 1.867782592773438 57.52153778076172 C 1.866958618164062 57.51879119873047 1.865852355957031 57.51509094238281 1.865036010742188 57.51234436035156 C 1.864501953125 57.51056671142578 1.863975524902344 57.50880432128906 1.863441467285156 57.50702667236328 C 1.861801147460938 57.50153350830078 1.860939025878906 57.49864196777344 1.859298706054688 57.49314880371094 C 1.859207153320312 57.49282836914062 1.859107971191406 57.49248504638672 1.8590087890625 57.49216461181641 C 1.790580749511719 57.26280212402344 1.723716735839844 57.03180313110352 1.658889770507812 56.80091094970703 C 1.658401489257812 56.79916381835938 1.657913208007812 56.79743576049805 1.657424926757812 56.79568862915039 C 1.656646728515625 56.79292297363281 1.655624389648438 56.78925704956055 1.65484619140625 56.78649139404297 C 1.653976440429688 56.78338241577148 1.653106689453125 56.7802848815918 1.652236938476562 56.77717971801758 C 1.651847839355469 56.77579498291016 1.651382446289062 56.77412033081055 1.650993347167969 56.77273559570312 C 1.643486022949219 56.74591445922852 1.636001586914062 56.71909332275391 1.6285400390625 56.6922492980957 C 1.628509521484375 56.6921501159668 1.628509521484375 56.69213485717773 1.62847900390625 56.69203948974609 C 1.621551513671875 56.6671257019043 1.613746643066406 56.63894653320312 1.606864929199219 56.61401748657227 C 1.195220947265625 55.04779434204102 2.109451293945312 53.44506072998047 3.679664611816406 53.0085563659668 C 3.949356079101562 52.93358993530273 4.221115112304688 52.89782333374023 4.48883056640625 52.8978271484375 Z M 3.000740051269531 39.86672973632812 C 3.044181823730469 39.86673355102539 3.08807373046875 39.86766815185547 3.131919860839844 39.86955642700195 C 4.787246704101562 39.94083023071289 6.087646484375 41.34110260009766 6.036468505859375 42.99717712402344 L 6.006973266601562 43.95126724243164 C 5.956382751464844 45.58821868896484 4.603439331054688 46.89400482177734 2.972328186035156 46.89400482177734 C 2.953292846679688 46.89400482177734 2.933937072753906 46.89382553100586 2.914833068847656 46.89346694946289 C 1.284858703613281 46.86283874511719 -0.00128173828125 45.53823471069336 0.0066070556640625 43.91813659667969 C 0.01378631591796875 43.49649047851562 0.02675628662109375 43.07779312133789 0.0455322265625 42.6590690612793 C 0.1355361938476562 41.08541107177734 1.430534362792969 39.86661148071289 3.000740051269531 39.86672973632812 Z M 5.621597290039062 27.02181243896484 C 5.969245910644531 27.02182006835938 6.323440551757812 27.08345031738281 6.669448852539062 27.21342849731445 C 8.220466613769531 27.79608535766602 9.0211181640625 29.53152084350586 8.457740783691406 31.08966445922852 L 8.134323120117188 31.98415756225586 C 7.68878173828125 33.21637344360352 6.516670227050781 33.98820495605469 5.271713256835938 33.98820495605469 C 4.942436218261719 33.98820495605469 4.607902526855469 33.93416595458984 4.280555725097656 33.82037353515625 C 2.741348266601562 33.28533935546875 1.930557250976562 31.6280632019043 2.440231323242188 30.09122848510742 C 2.4691162109375 30.00763702392578 2.497756958007812 29.92555999755859 2.527114868164062 29.84219360351562 C 2.527130126953125 29.8421516418457 2.527137756347656 29.84214782714844 2.527153015136719 29.84210205078125 C 2.542304992675781 29.79907608032227 2.557388305664062 29.75646209716797 2.572669982910156 29.71349334716797 C 2.57275390625 29.71326446533203 2.572822570800781 29.71307373046875 2.572906494140625 29.71284103393555 C 2.57672119140625 29.70209884643555 2.580413818359375 29.69174575805664 2.584243774414062 29.68100738525391 C 2.584259033203125 29.68096542358398 2.584281921386719 29.68090057373047 2.584297180175781 29.68085861206055 C 2.588119506835938 29.67012023925781 2.591705322265625 29.66009140014648 2.595542907714844 29.64935684204102 C 2.595687866210938 29.64893341064453 2.595840454101562 29.64852142333984 2.595985412597656 29.64810180664062 C 2.597908020019531 29.64273452758789 2.599441528320312 29.63844680786133 2.601364135742188 29.63307952880859 C 2.601463317871094 29.63278579711914 2.6015625 29.63251495361328 2.601669311523438 29.63222122192383 C 2.603591918945312 29.62685394287109 2.605133056640625 29.62253952026367 2.6070556640625 29.61717224121094 C 2.607215881347656 29.61672973632812 2.607376098632812 29.61627960205078 2.607536315917969 29.61583709716797 C 2.609458923339844 29.61046981811523 2.610755920410156 29.60684204101562 2.612686157226562 29.60147857666016 C 2.612930297851562 29.60078430175781 2.613166809082031 29.60012435913086 2.613418579101562 29.59943008422852 C 2.615341186523438 29.59406661987305 2.616439819335938 29.59100341796875 2.618370056152344 29.58563995361328 C 2.618682861328125 29.58475494384766 2.618995666503906 29.58388900756836 2.619316101074219 29.58300399780273 C 2.621238708496094 29.57764053344727 2.622467041015625 29.5742301940918 2.624397277832031 29.56886672973633 C 2.624542236328125 29.56846618652344 2.624679565429688 29.56808471679688 2.624824523925781 29.56768417358398 C 2.626747131347656 29.56232452392578 2.628173828125 29.55835342407227 2.630104064941406 29.55299377441406 C 2.630325317382812 29.55238342285156 2.630523681640625 29.55183029174805 2.630744934082031 29.55121994018555 C 2.632675170898438 29.54586029052734 2.633880615234375 29.54251861572266 2.635810852050781 29.53715896606445 C 2.636085510253906 29.53639984130859 2.636344909667969 29.53567504882812 2.636619567871094 29.53491973876953 C 2.6385498046875 29.52956008911133 2.639511108398438 29.52688980102539 2.641448974609375 29.52153015136719 C 2.641830444335938 29.52047729492188 2.642227172851562 29.51938247680664 2.642601013183594 29.51832962036133 C 2.644538879394531 29.51296997070312 2.645545959472656 29.51018142700195 2.647483825683594 29.50482177734375 C 2.647705078125 29.50421142578125 2.647926330566406 29.50360107421875 2.648147583007812 29.50299072265625 C 2.650077819824219 29.49763107299805 2.651214599609375 29.49449920654297 2.653152465820312 29.48914337158203 C 2.653511047363281 29.48815536499023 2.65386962890625 29.48714447021484 2.654228210449219 29.48615646362305 C 2.655685424804688 29.48213958740234 2.6572265625 29.47787475585938 2.658683776855469 29.47385787963867 C 2.659248352050781 29.4723014831543 2.659812927246094 29.47073745727539 2.660377502441406 29.46918106079102 C 2.661346435546875 29.46650314331055 2.663314819335938 29.46108245849609 2.664283752441406 29.45840454101562 C 2.665016174316406 29.45638656616211 2.665725708007812 29.45442199707031 2.666458129882812 29.45240020751953 C 2.667434692382812 29.44972229003906 2.669227600097656 29.44476699829102 2.670204162597656 29.44208908081055 C 2.670845031738281 29.44032287597656 2.671493530273438 29.43853378295898 2.672134399414062 29.436767578125 C 2.673110961914062 29.43408966064453 2.674934387207031 29.42905044555664 2.675910949707031 29.42637634277344 C 2.676727294921875 29.42412567138672 2.677536010742188 29.42190170288086 2.678352355957031 29.41965103149414 C 2.679328918457031 29.41697692871094 2.680610656738281 29.41344833374023 2.681587219238281 29.41077041625977 C 2.682487487792969 29.40829086303711 2.683372497558594 29.40586090087891 2.684272766113281 29.40338134765625 C 2.685249328613281 29.40070343017578 2.686386108398438 29.39757537841797 2.687362670898438 29.39490127563477 C 2.688323974609375 29.39227294921875 2.689285278320312 29.3896369934082 2.690238952636719 29.38700866699219 C 2.691215515136719 29.38433074951172 2.6923828125 29.38114166259766 2.693351745605469 29.37846374511719 C 2.694190979003906 29.37617492675781 2.695022583007812 29.37389755249023 2.695854187011719 29.37160491943359 C 2.696830749511719 29.36893081665039 2.698234558105469 29.36510467529297 2.699211120605469 29.3624267578125 C 2.700172424316406 29.35977935791016 2.701148986816406 29.35712051391602 2.702117919921875 29.35447311401367 C 2.703094482421875 29.35179901123047 2.70379638671875 29.34987258911133 2.70477294921875 29.34719848632812 C 2.705924987792969 29.34404373168945 2.70709228515625 29.34085083007812 2.708244323730469 29.33769989013672 C 2.709228515625 29.33502578735352 2.709564208984375 29.3341064453125 2.710540771484375 29.3314323425293 C 2.711769104003906 29.32807159423828 2.712997436523438 29.3247184753418 2.7142333984375 29.32135772705078 C 2.7152099609375 29.31868362426758 2.715545654296875 29.31777191162109 2.716522216796875 29.31509780883789 C 2.7176513671875 29.31201171875 2.718788146972656 29.30892944335938 2.719917297363281 29.30584335327148 C 2.720893859863281 29.30316925048828 2.721443176269531 29.30167007446289 2.722427368164062 29.29899978637695 C 2.723663330078125 29.29563903808594 2.724891662597656 29.29228210449219 2.726127624511719 29.28892135620117 C 2.726615905761719 29.2875862121582 2.727684020996094 29.28468322753906 2.728172302246094 29.28334808349609 C 2.729446411132812 29.27988433837891 2.730712890625 29.27643585205078 2.731986999511719 29.27297210693359 C 2.732475280761719 29.27163696289062 2.733634948730469 29.26849365234375 2.734123229980469 29.26715850830078 C 2.735420227050781 29.26362991333008 2.736724853515625 29.26008987426758 2.738021850585938 29.25656509399414 C 2.738510131835938 29.25522994995117 2.739494323730469 29.25255584716797 2.739990234375 29.251220703125 C 2.741256713867188 29.24777603149414 2.742530822753906 29.24432373046875 2.743797302246094 29.24088287353516 C 2.744293212890625 29.23954391479492 2.745506286621094 29.23623657226562 2.746002197265625 29.23490142822266 C 2.747337341308594 29.23127365112305 2.748664855957031 29.22766876220703 2.750007629394531 29.22403717041016 C 2.750503540039062 29.22270202636719 2.751235961914062 29.22071838378906 2.751724243164062 29.21938323974609 C 2.753196716308594 29.21539688110352 2.754661560058594 29.21142578125 2.756134033203125 29.20744323730469 C 2.756629943847656 29.20610809326172 2.757049560546875 29.20497512817383 2.757537841796875 29.20363998413086 C 2.7591552734375 29.19927597045898 2.760765075683594 29.19491577148438 2.762374877929688 29.19055557250977 C 2.762870788574219 29.1892204284668 2.762886047363281 29.18918228149414 2.763381958007812 29.18784713745117 C 2.764991760253906 29.1834831237793 2.7666015625 29.17913818359375 2.768218994140625 29.17477798461914 C 2.768707275390625 29.17344284057617 2.768882751464844 29.17298126220703 2.769378662109375 29.17164611816406 C 2.771102905273438 29.1669921875 2.772819519042969 29.1623420715332 2.774551391601562 29.15768814086914 C 2.775039672851562 29.15635299682617 2.774642944335938 29.15742874145508 2.775138854980469 29.15609359741211 C 2.776954650878906 29.15120697021484 2.778778076171875 29.14628601074219 2.780593872070312 29.14140319824219 C 2.781089782714844 29.14006805419922 2.780570983886719 29.14144515991211 2.78106689453125 29.14011383056641 C 2.784912109375 29.12975692749023 2.788772583007812 29.11936569213867 2.792625427246094 29.10901641845703 C 2.793121337890625 29.10768127441406 2.792503356933594 29.10934448242188 2.792999267578125 29.10801315307617 C 2.808929443359375 29.06520462036133 2.824920654296875 29.0224494934082 2.840972900390625 28.97970199584961 C 2.840972900390625 28.97970199584961 2.840972900390625 28.97970199584961 2.840972900390625 28.97970199584961 C 2.850486755371094 28.95438766479492 2.860092163085938 28.92887496948242 2.869644165039062 28.90359115600586 C 3.326560974121094 27.7379150390625 4.436439514160156 27.02178573608398 5.621597290039062 27.02181243896484 Z M 12.12434387207031 15.63498687744141 C 12.77345275878906 15.63504028320312 13.42794799804688 15.84857940673828 13.97724914550781 16.28848266601562 C 15.27052307128906 17.32415771484375 15.49223327636719 19.22235870361328 14.47246551513672 20.52821350097656 L 13.88594055175781 21.27930450439453 C 13.28916931152344 22.04349517822266 12.39280700683594 22.44428253173828 11.48745727539062 22.44428253173828 C 10.84574890136719 22.44428253173828 10.19939422607422 22.24273681640625 9.652595520019531 21.82640838623047 C 8.355819702148438 20.83909606933594 8.100456237792969 19.01138305664062 9.063194274902344 17.70902252197266 C 9.116447448730469 17.63881683349609 9.170120239257812 17.56848907470703 9.223777770996094 17.49860382080078 C 9.223876953125 17.49848175048828 9.223960876464844 17.49837493896484 9.224052429199219 17.49824523925781 C 9.227462768554688 17.49381256103516 9.229827880859375 17.49073791503906 9.233230590820312 17.48629760742188 C 9.233711242675781 17.48567962646484 9.234184265136719 17.48506164550781 9.234657287597656 17.48444366455078 C 9.237213134765625 17.48111724853516 9.239288330078125 17.47841644287109 9.241851806640625 17.47509002685547 C 9.243255615234375 17.4732666015625 9.244682312011719 17.47140502929688 9.24609375 17.46957397460938 C 9.247795104980469 17.46736145019531 9.249473571777344 17.46517181396484 9.251182556152344 17.46295928955078 C 9.253021240234375 17.46056365966797 9.254890441894531 17.45814514160156 9.256729125976562 17.45574951171875 C 9.257583618164062 17.45464324951172 9.259963989257812 17.45154571533203 9.260818481445312 17.450439453125 C 9.263221740722656 17.44731140136719 9.265609741210938 17.4442138671875 9.268013000488281 17.44109344482422 C 9.268867492675781 17.43998718261719 9.269332885742188 17.43938446044922 9.270187377929688 17.43827056884766 C 9.273048400878906 17.4345703125 9.275901794433594 17.43086242675781 9.278762817382812 17.42715454101562 C 9.279609680175781 17.42604827880859 9.279312133789062 17.42643737792969 9.280166625976562 17.42533111572266 C 9.447883605957031 17.20784759521484 9.617546081542969 16.99195098876953 9.789154052734375 16.77766418457031 C 9.789222717285156 16.777587890625 9.789199829101562 16.77761840820312 9.789260864257812 16.77753448486328 C 9.805862426757812 16.75680541992188 9.82269287109375 16.73582458496094 9.839332580566406 16.71512603759766 C 10.42472076416016 16.00473022460938 11.26993560791016 15.63491821289062 12.12434387207031 15.63498687744141 Z M 21.83100891113281 6.812042236328125 C 22.79264831542969 6.812110900878906 23.73462677001953 7.281646728515625 24.30588531494141 8.15045166015625 C 25.21615600585938 9.53485107421875 24.84095764160156 11.40877532958984 23.46784973144531 12.33599090576172 L 22.67835998535156 12.86910247802734 C 22.16008758544922 13.21907043457031 21.57005310058594 13.38674163818359 20.9852294921875 13.38674163818359 C 20.02061462402344 13.38674163818359 19.07054138183594 12.93022918701172 18.48284912109375 12.08254241943359 C 17.55417633056641 10.74301147460938 17.87583160400391 8.925491333007812 19.19383239746094 7.984062194824219 C 19.21566772460938 7.968856811523438 19.23773193359375 7.953536987304688 19.25959777832031 7.938369750976562 C 19.25968170166016 7.938316345214844 19.25972747802734 7.938285827636719 19.25981140136719 7.938232421875 C 19.33978271484375 7.882781982421875 19.41997528076172 7.82757568359375 19.50032043457031 7.772636413574219 C 19.50032043457031 7.772636413574219 19.50070190429688 7.772377014160156 19.50070190429688 7.772377014160156 C 19.50508117675781 7.769386291503906 19.50941467285156 7.766426086425781 19.5137939453125 7.763427734375 C 19.51495361328125 7.762641906738281 19.515869140625 7.762016296386719 19.51702880859375 7.761222839355469 C 19.52050018310547 7.75885009765625 19.52398681640625 7.7564697265625 19.52745819091797 7.754096984863281 C 19.52861785888672 7.753311157226562 19.53120422363281 7.751541137695312 19.53236389160156 7.750755310058594 C 19.53520965576172 7.748809814453125 19.53801727294922 7.746894836425781 19.54087066650391 7.744949340820312 C 19.54318237304688 7.743370056152344 19.545654296875 7.741691589355469 19.54796600341797 7.7401123046875 C 19.55018615722656 7.738594055175781 19.55239868164062 7.737091064453125 19.55461883544922 7.735572814941406 C 19.55693817138672 7.733993530273438 19.56053161621094 7.731544494628906 19.56285095214844 7.729965209960938 C 19.56455230712891 7.728813171386719 19.56626892089844 7.727638244628906 19.56797027587891 7.726478576660156 C 19.57144927978516 7.724113464355469 19.57472991943359 7.721878051757812 19.57820129394531 7.719512939453125 C 19.57927703857422 7.718780517578125 19.58034515380859 7.718055725097656 19.5814208984375 7.717323303222656 C 19.58605194091797 7.71417236328125 19.58863830566406 7.712409973144531 19.59327697753906 7.709259033203125 C 19.59373474121094 7.708946228027344 19.59420776367188 7.708625793457031 19.59466552734375 7.70831298828125 C 19.80899810791016 7.562576293945312 20.02252960205078 7.420059204101562 20.239501953125 7.277976989746094 C 20.73381042480469 6.963020324707031 21.28546905517578 6.812004089355469 21.83100891113281 6.812042236328125 Z M 33.79069900512695 1.438186645507812 C 35.09433364868164 1.438232421875 36.28383636474609 2.303031921386719 36.64294052124023 3.627815246582031 C 37.07641220092773 5.226959228515625 36.13592147827148 6.890777587890625 34.54226684570312 7.344047546386719 L 33.6274299621582 7.604248046875 C 33.35215759277344 7.682540893554688 33.07450485229492 7.719863891601562 32.80097579956055 7.719863891601562 C 31.49094009399414 7.719863891601562 30.27672576904297 6.863456726074219 29.88541030883789 5.549827575683594 C 29.42014694213867 3.987892150878906 30.29138946533203 2.361381530761719 31.83674240112305 1.877197265625 C 31.86282348632812 1.869377136230469 31.88808059692383 1.861831665039062 31.91418075561523 1.854057312011719 C 31.91427612304688 1.854026794433594 31.91442489624023 1.853981018066406 31.91452026367188 1.853958129882812 C 31.98579025268555 1.832725524902344 32.05713272094727 1.811668395996094 32.1285514831543 1.790779113769531 C 32.43551635742188 1.701019287109375 32.74184799194336 1.615013122558594 33.05150985717773 1.531700134277344 C 33.29877471923828 1.468482971191406 33.5467414855957 1.438179016113281 33.79069900512695 1.438186645507812 Z" stroke="none" fill="#090039"/>
    </g>
  </g>
</svg>
