<svg xmlns="http://www.w3.org/2000/svg" width="48" height="48" viewBox="0 0 48 48">
  <g id="smile" transform="translate(-936 -1795)">
    <g id="Group_2296" data-name="Group 2296" transform="translate(935.657 1794.657)">
      <circle id="Ellipse_35" data-name="Ellipse 35" cx="24" cy="24" r="24" transform="translate(0.343 0.343)" fill="#fff"/>
    </g>
    <g id="Group_2188" data-name="Group 2188" transform="translate(951.505 1813.027)">
      <g id="Group_2185" data-name="Group 2185" transform="translate(0.667 9.818)">
        <path id="Path_1344" data-name="Path 1344" d="M166.548,663.286a10.424,10.424,0,0,1-7.415-3.072,1.048,1.048,0,1,1,1.483-1.483,8.591,8.591,0,0,0,11.863,0,1.048,1.048,0,0,1,1.483,1.483A10.419,10.419,0,0,1,166.548,663.286Z" transform="translate(-158.826 -658.423)" fill="#090039"/>
      </g>
      <g id="Group_2186" data-name="Group 2186">
        <circle id="Ellipse_4" data-name="Ellipse 4" cx="2.097" cy="2.097" r="2.097" fill="#090039"/>
      </g>
      <g id="Group_2187" data-name="Group 2187" transform="translate(12.583)">
        <circle id="Ellipse_5" data-name="Ellipse 5" cx="2.097" cy="2.097" r="2.097" fill="#090039"/>
      </g>
    </g>
  </g>
</svg>
