<svg xmlns="http://www.w3.org/2000/svg" width="424" height="48.097" viewBox="0 0 424 48.097">
  <g id="Group_2242" data-name="Group 2242" transform="translate(-561.15 -281.86)">
    <path id="Path_1392" data-name="Path 1392" d="M568.005,282.171l4.366,29.713h.623l5.557-29.713h10.7l5.556,29.713h.619l4.365-29.713h6.856l-5.712,36.361H589.772l-5.556-29.709h-.628l-5.556,29.709H566.867l-5.717-36.361Z" transform="translate(0 1.036)" fill="#fff"/>
    <path id="Path_1393" data-name="Path 1393" d="M584.846,284.45c7.483,0,12.52,5.249,12.52,12.988v2.542H578.618a6.261,6.261,0,0,0,6.436,6.076,6.76,6.76,0,0,0,6.444-3.841l5.349,3.114c-1.763,2.707-4.781,6.34-11.684,6.34-7.691,0-13.248-5.816-13.248-13.819C571.914,290.063,577.262,284.45,584.846,284.45Zm5.872,10.961c-.468-3.274-2.546-5.348-5.92-5.348-3.69,0-5.608,2.178-6.128,5.348Z" transform="translate(35.852 8.627)" fill="#fff"/>
    <path id="Path_1394" data-name="Path 1394" d="M585.174,284.938v3.846h.728a6.859,6.859,0,0,1,6.8-4.261,7.122,7.122,0,0,1,6.86,4.365h.723c1.148-2.391,3.222-4.365,7.323-4.365,4.729,0,8.519,3.586,8.519,8.934V310.7h-6.544V293.976c0-2.39-1.711-3.742-4.205-3.742-2.7,0-4.673,1.559-4.673,4.781V310.7h-6.548V293.976c0-2.39-1.715-3.742-4.209-3.742-2.7,0-4.673,1.559-4.673,4.781V310.7H578.73V284.938Z" transform="translate(58.554 8.866)" fill="#fff"/>
    <path id="Path_1395" data-name="Path 1395" d="M607.477,310.381v-4.157h-.723c-1.044,2.391-3.43,4.573-8.159,4.573-5.716,0-10.026-4.106-10.026-10.805V284.618h6.544v14.75c0,3.586,2.083,5.716,5.821,5.716,4.209,0,6.44-2.6,6.44-7.172v-13.3h6.544v25.763Z" transform="translate(91.325 9.186)" fill="#fff"/>
    <path id="Path_1396" data-name="Path 1396" d="M602.21,284.938V289.1h.727c1.035-2.391,3.426-4.573,8.155-4.573,5.713,0,10.022,4.105,10.022,10.805V310.7H614.57v-14.75c0-3.586-2.079-5.717-5.816-5.717-4.209,0-6.444,2.6-6.444,7.172v13.3h-6.54V284.938Z" transform="translate(115.31 8.866)" fill="#fff"/>
    <path id="Path_1397" data-name="Path 1397" d="M607.206,281.86a4.468,4.468,0,1,1-4.621,4.465A4.409,4.409,0,0,1,607.206,281.86Zm3.274,37.708h-6.544V293.8h6.544Z" transform="translate(138.009 0)" fill="#fff"/>
    <path id="Path_1398" data-name="Path 1398" d="M611.678,290.77v-8h6.539v8h7.064v5.613h-7.064v12.983c0,1.039.52,1.555,1.455,1.555h4.153v5.613h-7.063a4.882,4.882,0,0,1-5.084-4.985V296.383H605.13V290.77Z" transform="translate(146.485 3.034)" fill="#fff"/>
    <path id="Path_1399" data-name="Path 1399" d="M638.4,284.618l-14.131,36.153h-7.063l3.638-8.727-10.7-27.426h7.063l6.752,18.492h.623l6.752-18.492Z" transform="translate(163.192 9.186)" fill="#fff"/>
    <path id="Path_1400" data-name="Path 1400" d="M620.609,285.178h6.444v3.638h.728c1.347-2.183,3.633-4.365,8.2-4.365,6.44,0,11.844,5.716,11.844,13.611s-5.4,13.607-11.844,13.607c-4.569,0-6.856-2.183-8.2-4.361h-.628v14.023h-6.543Zm20.675,12.884c0-4.989-3.118-7.8-7.068-7.8-4.05,0-7.064,2.91-7.064,7.8s3.014,7.791,7.064,7.791C638.166,305.853,641.284,303.046,641.284,298.061Z" transform="translate(198.042 8.627)" fill="#fff"/>
    <path id="Path_1401" data-name="Path 1401" d="M634.321,288.435h.728c.987-2.854,3.17-3.841,6.435-3.841h2.5v5.92h-3.846c-3.326,0-5.712,1.767-5.712,5.4v14.542h-6.544V284.7h6.44Z" transform="translate(222.263 9.106)" fill="#fff"/>
    <path id="Path_1402" data-name="Path 1402" d="M645.332,284.45a13.61,13.61,0,1,1-13.5,13.611A13.128,13.128,0,0,1,645.332,284.45Zm0,21.4c4.157,0,6.964-3.118,6.964-7.791s-2.807-7.8-6.964-7.8-6.955,3.118-6.955,7.8S641.179,305.853,645.332,305.853Z" transform="translate(235.412 8.627)" fill="#fff"/>
    <path id="Path_1403" data-name="Path 1403" d="M650.2,324.968a4.886,4.886,0,0,1-5.084,4.989h-7.38v-5.509H642.2c.931,0,1.455-.52,1.455-1.559V293.8H650.2Zm-3.27-43.108a4.468,4.468,0,1,1-4.621,4.465A4.408,4.408,0,0,1,646.927,281.86Z" transform="translate(255.077 0)" fill="#fff"/>
    <path id="Path_1404" data-name="Path 1404" d="M654.529,284.45c7.483,0,12.52,5.249,12.52,12.988v2.542H648.3a6.261,6.261,0,0,0,6.435,6.076,6.748,6.748,0,0,0,6.44-3.841l5.353,3.114c-1.767,2.707-4.781,6.34-11.689,6.34-7.687,0-13.243-5.816-13.243-13.819C641.6,290.063,646.945,284.45,654.529,284.45Zm5.868,10.961c-.463-3.274-2.542-5.348-5.92-5.348-3.686,0-5.608,2.178-6.128,5.348Z" transform="translate(267.947 8.627)" fill="#fff"/>
    <path id="Path_1405" data-name="Path 1405" d="M661.452,284.45c7.172,0,11.637,4,12.988,9.87L668,295.983c-.464-3.118-2.49-5.717-6.44-5.717s-6.96,3.118-6.96,7.8,2.754,7.791,6.96,7.791c3.95,0,5.768-2.287,6.44-5.665l6.444,1.611c-1.252,5.873-5.769,9.87-12.988,9.87a13.611,13.611,0,0,1,0-27.219Z" transform="translate(289.45 8.627)" fill="#fff"/>
    <path id="Path_1406" data-name="Path 1406" d="M660.949,290.77v-8h6.544v8h7.063v5.613h-7.063v12.983c0,1.039.52,1.555,1.455,1.555H673.1v5.613h-7.063a4.884,4.884,0,0,1-5.089-4.985V296.383H654.4V290.77Z" transform="translate(310.594 3.034)" fill="#fff"/>
  </g>
</svg>
