<svg id="Group_2411" data-name="Group 2411" xmlns="http://www.w3.org/2000/svg" width="50.273" height="50.295" viewBox="0 0 50.273 50.295">
  <path id="Path_1526" data-name="Path 1526" d="M95.881,60.347a2.455,2.455,0,0,0-3.46,0L79.111,74.561c-1.262,1.356-2.587,2.681-3.959,3.959L60.938,91.83a2.447,2.447,0,0,0,3.46,3.46l13.31-14.214c1.262-1.356,2.587-2.681,3.959-3.959l14.214-13.31A2.414,2.414,0,0,0,95.881,60.347Z" transform="translate(-53.27 -52.649)" fill="#e1e1ef"/>
  <path id="Path_1527" data-name="Path 1527" d="M58.76,62.185l6.1,4.637h0A1.94,1.94,0,0,0,67.6,64.08c-.028-.028-.057-.052-.087-.078l-4.55-6.016a3.093,3.093,0,0,0-.413-.514,3.042,3.042,0,1,0-4.3,4.3A3.089,3.089,0,0,0,58.76,62.185Z" transform="translate(-50.875 -50.101)" fill="#e1e1ef"/>
  <path id="Path_1528" data-name="Path 1528" d="M224.2,219.22l-6.016-4.55c-.026-.029-.05-.059-.078-.086a1.94,1.94,0,0,0-2.743,2.743L220,223.421a3.093,3.093,0,0,0,.413.514,3.042,3.042,0,1,0,4.3-4.3A3.1,3.1,0,0,0,224.2,219.22Z" transform="translate(-181.803 -181.029)" fill="#e1e1ef"/>
  <path id="Path_1529" data-name="Path 1529" d="M150.211,21.823l1.049,7.559c0,.026,0,.051,0,.077a1.94,1.94,0,1,0,3.879,0h0l1-7.394a3.085,3.085,0,0,0,.119-.841,3.042,3.042,0,1,0-6.083,0,3.1,3.1,0,0,0,.059.6Z" transform="translate(-128.064 -18.161)" fill="#e1e1ef"/>
  <path id="Path_1530" data-name="Path 1530" d="M155.05,240.036c0-.015,0-.029,0-.044a1.94,1.94,0,0,0-3.879,0c0,.012,0,.024,0,.037l-1.054,7.6a3.1,3.1,0,0,0-.063.622,3.042,3.042,0,1,0,6.083,0,3.09,3.09,0,0,0-.074-.666Z" transform="translate(-127.972 -201.018)" fill="#e1e1ef"/>
  <path id="Path_1531" data-name="Path 1531" d="M248.992,149.4a3.092,3.092,0,0,0-.608.06v0l-7.553,1.035c-.024,0-.048,0-.073,0a1.94,1.94,0,1,0,0,3.879h.009l7.507,1.029a3.043,3.043,0,1,0,.718-6Z" transform="translate(-201.783 -127.299)" fill="#e1e1ef"/>
  <path id="Path_1532" data-name="Path 1532" d="M30.176,154.393l.049,0a1.94,1.94,0,1,0,0-3.879H30.2l-7.627-1.041v0a3.09,3.09,0,0,0-.584-.057,3.042,3.042,0,1,0,.774,5.982Z" transform="translate(-18.927 -127.315)" fill="#e1e1ef"/>
</svg>
