<svg id="Group_2388" data-name="Group 2388" xmlns="http://www.w3.org/2000/svg" width="65.74" height="65.769" viewBox="0 0 65.74 65.769">
  <path id="Path_1526" data-name="Path 1526" d="M106.851,60.567a3.211,3.211,0,0,0-4.525,0l-17.4,18.587c-1.651,1.773-3.383,3.505-5.177,5.177l-18.587,17.4a3.2,3.2,0,0,0,4.525,4.525l17.4-18.587c1.651-1.773,3.383-3.505,5.177-5.177l18.587-17.405A3.156,3.156,0,0,0,106.851,60.567Z" transform="translate(-51.13 -50.5)" fill="#fff"/>
  <path id="Path_1527" data-name="Path 1527" d="M59.2,63.913l7.97,6.064h0a2.536,2.536,0,1,0,3.587-3.587c-.036-.036-.075-.069-.113-.1l-5.95-7.867a4.043,4.043,0,0,0-.54-.672,3.978,3.978,0,1,0-5.625,5.625A4.037,4.037,0,0,0,59.2,63.913Z" transform="translate(-48.884 -48.11)" fill="#fff"/>
  <path id="Path_1528" data-name="Path 1528" d="M227.089,220.821l-7.867-5.95c-.034-.038-.066-.077-.1-.113a2.536,2.536,0,0,0-3.587,3.587l6.064,7.97a4.046,4.046,0,0,0,.54.672,3.978,3.978,0,1,0,5.625-5.625A4.053,4.053,0,0,0,227.089,220.821Z" transform="translate(-171.653 -170.88)" fill="#fff"/>
  <path id="Path_1529" data-name="Path 1529" d="M150.225,22.949l1.372,9.885c0,.034-.005.067-.005.1a2.536,2.536,0,1,0,5.073,0h0l1.3-9.669a4.033,4.033,0,0,0,.155-1.1,3.978,3.978,0,1,0-7.955,0,4.049,4.049,0,0,0,.077.784Z" transform="translate(-121.263 -18.161)" fill="#fff"/>
  <path id="Path_1530" data-name="Path 1530" d="M156.586,240.646c0-.019,0-.038,0-.057a2.536,2.536,0,0,0-5.073,0c0,.016,0,.032,0,.048l-1.379,9.936a4.059,4.059,0,0,0-.082.814,3.978,3.978,0,1,0,7.955,0,4.043,4.043,0,0,0-.1-.871Z" transform="translate(-121.178 -189.624)" fill="#fff"/>
  <path id="Path_1531" data-name="Path 1531" d="M252.123,149.4a4.045,4.045,0,0,0-.8.079v0l-9.877,1.353c-.032,0-.063,0-.1,0a2.536,2.536,0,1,0,0,5.073h.012l9.816,1.345a3.98,3.98,0,1,0,.939-7.84Z" transform="translate(-190.389 -120.498)" fill="#fff"/>
  <path id="Path_1532" data-name="Path 1532" d="M33.637,155.922c.022,0,.043,0,.064,0a2.536,2.536,0,1,0,0-5.073l-.031,0L23.7,149.493v0a4.04,4.04,0,0,0-.764-.074,3.977,3.977,0,1,0,1.012,7.822Z" transform="translate(-18.927 -120.514)" fill="#fff"/>
</svg>
