<svg xmlns="http://www.w3.org/2000/svg" width="443.055" height="65.769" viewBox="0 0 443.055 65.769">
  <g id="Group_2362" data-name="Group 2362" transform="translate(-1668.618 -166.031)">
    <g id="Group_2383" data-name="Group 2383" transform="translate(1769.023 182.255)">
      <g id="Group_2242" data-name="Group 2242" transform="translate(0 0)">
        <path id="Path_1392" data-name="Path 1392" d="M566.69,282.171l3.528,24.012h.5l4.49-24.012h8.648l4.49,24.012h.5l3.528-24.012h5.54L593.3,311.555H584.28l-4.49-24.009h-.508l-4.49,24.009H565.77l-4.62-29.384Z" transform="translate(-561.15 -281.083)" fill="#fff"/>
        <path id="Path_1393" data-name="Path 1393" d="M582.365,284.45c6.048,0,10.118,4.242,10.118,10.5V297H577.332a5.06,5.06,0,0,0,5.2,4.91,5.463,5.463,0,0,0,5.208-3.1l4.322,2.516a10.306,10.306,0,0,1-9.443,5.124c-6.216,0-10.706-4.7-10.706-11.168C571.914,288.986,576.236,284.45,582.365,284.45Zm4.746,8.858a4.58,4.58,0,0,0-4.784-4.322c-2.982,0-4.532,1.76-4.952,4.322Z" transform="translate(-534.242 -275.385)" fill="#fff"/>
        <path id="Path_1394" data-name="Path 1394" d="M583.938,284.858v3.108h.588a5.543,5.543,0,0,1,5.495-3.444,5.756,5.756,0,0,1,5.544,3.528h.584a5.972,5.972,0,0,1,5.918-3.528,6.843,6.843,0,0,1,6.884,7.22v13.936h-5.288V292.162c0-1.932-1.383-3.024-3.4-3.024A3.507,3.507,0,0,0,596.488,293v12.676H591.2V292.162c0-1.932-1.386-3.024-3.4-3.024A3.509,3.509,0,0,0,584.018,293v12.676H578.73v-20.82Z" transform="translate(-517.203 -275.205)" fill="#fff"/>
        <path id="Path_1395" data-name="Path 1395" d="M603.849,305.438v-3.36h-.584c-.843,1.932-2.772,3.7-6.594,3.7-4.62,0-8.1-3.318-8.1-8.732V284.618h5.289v11.92c0,2.9,1.683,4.62,4.7,4.62,3.4,0,5.2-2.1,5.2-5.8V284.618h5.288v20.82Z" transform="translate(-492.608 -274.965)" fill="#fff"/>
        <path id="Path_1396" data-name="Path 1396" d="M600.974,284.858v3.36h.588c.837-1.932,2.769-3.7,6.59-3.7,4.617,0,8.1,3.318,8.1,8.732v12.424h-5.288v-11.92c0-2.9-1.68-4.62-4.7-4.62-3.4,0-5.208,2.1-5.208,5.8v10.744H595.77v-20.82Z" transform="translate(-474.606 -275.205)" fill="#fff"/>
        <path id="Path_1397" data-name="Path 1397" d="M606.319,281.86a3.61,3.61,0,1,1-3.734,3.608A3.563,3.563,0,0,1,606.319,281.86Zm2.646,30.473h-5.288v-20.82h5.288Z" transform="translate(-457.57 -281.86)" fill="#fff"/>
        <path id="Path_1398" data-name="Path 1398" d="M610.422,289.235v-6.464h5.284v6.464h5.708v4.536h-5.708v10.492c0,.84.42,1.256,1.176,1.256h3.356v4.536h-5.708a3.946,3.946,0,0,1-4.109-4.028V293.771H605.13v-4.536Z" transform="translate(-451.208 -279.583)" fill="#fff"/>
        <path id="Path_1399" data-name="Path 1399" d="M632.982,284.618l-11.42,29.216h-5.708l2.94-7.052-8.648-22.164h5.708l5.456,14.944h.5l5.456-14.944Z" transform="translate(-438.669 -274.965)" fill="#fff"/>
        <path id="Path_1400" data-name="Path 1400" d="M620.609,285.038h5.208v2.94h.588a7.157,7.157,0,0,1,6.629-3.528c5.2,0,9.572,4.62,9.572,11s-4.368,11-9.572,11a7.161,7.161,0,0,1-6.629-3.524H625.9v11.332h-5.288Zm16.708,10.412c0-4.032-2.52-6.3-5.712-6.3-3.273,0-5.708,2.352-5.708,6.3s2.436,6.3,5.708,6.3C634.8,301.746,637.317,299.478,637.317,295.45Z" transform="translate(-412.513 -275.385)" fill="#fff"/>
        <path id="Path_1401" data-name="Path 1401" d="M633.085,287.7h.588c.8-2.306,2.562-3.1,5.2-3.1h2.02v4.784h-3.108c-2.688,0-4.616,1.428-4.616,4.368V305.5h-5.288v-20.82h5.2Z" transform="translate(-394.335 -275.025)" fill="#fff"/>
        <path id="Path_1402" data-name="Path 1402" d="M642.742,284.45a11,11,0,1,1-10.913,11A10.609,10.609,0,0,1,642.742,284.45Zm0,17.3c3.359,0,5.628-2.52,5.628-6.3s-2.268-6.3-5.628-6.3-5.621,2.52-5.621,6.3S639.385,301.746,642.742,301.746Z" transform="translate(-384.465 -275.385)" fill="#fff"/>
        <path id="Path_1403" data-name="Path 1403" d="M647.806,316.7a3.949,3.949,0,0,1-4.109,4.032h-5.964v-4.452h3.612c.752,0,1.176-.42,1.176-1.26v-23.5h5.285Zm-2.642-34.837a3.61,3.61,0,1,1-3.734,3.608A3.562,3.562,0,0,1,645.163,281.86Z" transform="translate(-369.706 -281.86)" fill="#fff"/>
        <path id="Path_1404" data-name="Path 1404" d="M652.048,284.45c6.048,0,10.118,4.242,10.118,10.5V297H647.015a5.059,5.059,0,0,0,5.2,4.91,5.453,5.453,0,0,0,5.2-3.1l4.326,2.516a10.313,10.313,0,0,1-9.446,5.124c-6.212,0-10.7-4.7-10.7-11.168C641.6,288.986,645.919,284.45,652.048,284.45Zm4.742,8.858a4.576,4.576,0,0,0-4.784-4.322c-2.979,0-4.532,1.76-4.952,4.322Z" transform="translate(-360.047 -275.385)" fill="#fff"/>
        <path id="Path_1405" data-name="Path 1405" d="M658.881,284.45c5.8,0,9.4,3.234,10.5,7.976l-5.208,1.344a5,5,0,0,0-5.2-4.62c-3.188,0-5.624,2.52-5.624,6.3s2.226,6.3,5.624,6.3c3.192,0,4.662-1.848,5.2-4.578l5.208,1.3c-1.011,4.746-4.662,7.976-10.5,7.976a11,11,0,0,1,0-22Z" transform="translate(-343.908 -275.385)" fill="#fff"/>
        <path id="Path_1406" data-name="Path 1406" d="M659.693,289.235v-6.464h5.288v6.464h5.708v4.536h-5.708v10.492c0,.84.42,1.256,1.176,1.256h3.356v4.536h-5.708a3.947,3.947,0,0,1-4.112-4.028V293.771H654.4v-4.536Z" transform="translate(-328.039 -279.583)" fill="#fff"/>
      </g>
    </g>
    <g id="Group_2388" data-name="Group 2388" transform="translate(1668.618 166.031)">
      <path id="Path_1526" data-name="Path 1526" d="M106.851,60.567a3.211,3.211,0,0,0-4.525,0l-17.4,18.587c-1.651,1.773-3.383,3.505-5.177,5.177l-18.587,17.4a3.2,3.2,0,0,0,4.525,4.525l17.4-18.587c1.651-1.773,3.383-3.505,5.177-5.177l18.587-17.405A3.156,3.156,0,0,0,106.851,60.567Z" transform="translate(-51.13 -50.5)" fill="#fff"/>
      <path id="Path_1527" data-name="Path 1527" d="M59.2,63.913l7.97,6.064h0a2.536,2.536,0,1,0,3.587-3.587c-.036-.036-.075-.069-.113-.1l-5.95-7.867a4.043,4.043,0,0,0-.54-.672,3.978,3.978,0,1,0-5.625,5.625A4.037,4.037,0,0,0,59.2,63.913Z" transform="translate(-48.884 -48.11)" fill="#fff"/>
      <path id="Path_1528" data-name="Path 1528" d="M227.089,220.821l-7.867-5.95c-.034-.038-.066-.077-.1-.113a2.536,2.536,0,0,0-3.587,3.587l6.064,7.97a4.046,4.046,0,0,0,.54.672,3.978,3.978,0,1,0,5.625-5.625A4.053,4.053,0,0,0,227.089,220.821Z" transform="translate(-171.653 -170.88)" fill="#fff"/>
      <path id="Path_1529" data-name="Path 1529" d="M150.225,22.949l1.372,9.885c0,.034-.005.067-.005.1a2.536,2.536,0,1,0,5.073,0h0l1.3-9.669a4.033,4.033,0,0,0,.155-1.1,3.978,3.978,0,1,0-7.955,0,4.049,4.049,0,0,0,.077.784Z" transform="translate(-121.263 -18.161)" fill="#fff"/>
      <path id="Path_1530" data-name="Path 1530" d="M156.586,240.646c0-.019,0-.038,0-.057a2.536,2.536,0,0,0-5.073,0c0,.016,0,.032,0,.048l-1.379,9.936a4.059,4.059,0,0,0-.082.814,3.978,3.978,0,1,0,7.955,0,4.043,4.043,0,0,0-.1-.871Z" transform="translate(-121.178 -189.624)" fill="#fff"/>
      <path id="Path_1531" data-name="Path 1531" d="M252.123,149.4a4.045,4.045,0,0,0-.8.079v0l-9.877,1.353c-.032,0-.063,0-.1,0a2.536,2.536,0,1,0,0,5.073h.012l9.816,1.345a3.98,3.98,0,1,0,.939-7.84Z" transform="translate(-190.389 -120.498)" fill="#fff"/>
      <path id="Path_1532" data-name="Path 1532" d="M33.637,155.922c.022,0,.043,0,.064,0a2.536,2.536,0,1,0,0-5.073l-.031,0L23.7,149.493v0a4.04,4.04,0,0,0-.764-.074,3.977,3.977,0,1,0,1.012,7.822Z" transform="translate(-18.927 -120.514)" fill="#fff"/>
    </g>
  </g>
</svg>
